<?xml version="1.0" encoding="utf-8"?>
<!-- Generator: Adobe Illustrator 22.0.1, SVG Export Plug-In . SVG Version: 6.00 Build 0)  -->
<svg version="1.1" id="Layer_1" xmlns="http://www.w3.org/2000/svg" xmlns:xlink="http://www.w3.org/1999/xlink" x="0px" y="0px"
	 viewBox="0 0 43 29" style="enable-background:new 0 0 43 29;" xml:space="preserve">
<style type="text/css">
	.st0{display:none;}
	.st1{display:inline;fill:#FFFFFF;}
	.st2{display:inline;}
	.st3{fill:#FFFFFF;}
	.st4{fill:#525879;}
	.st5{fill:none;}
</style>
<g id="Time" class="st0">
	<path class="st1" d="M1.3,15.9c0.1,1,0.2,1.8,0.4,2.6c2.3,11.6,13.2,20,25.8,17.7c12.5-2.3,19.9-14,17.8-25.6
		C43.7,2,38.4-3.6,30.3-6.5c-2.2-0.8-4.6-1.1-7-1.1c-0.8,0-1.4,0.3-1.5,1c0,0.6,0.5,1.1,1.4,1.1c0.1,0,0.2,0,0.2,0
		c1.4,0,2.8,0,4.2,0.4C38.2-3,45.2,7.5,43.3,18.2s-12.2,18-22.9,16.3c-8.2-1.3-14.6-7.3-16.5-15.4C3.7,18,3.6,17,3.4,15.9h0.1
		C3.7,16,3.8,16.2,4,16.3c0.7,0.6,1.6,1.4,2.3,2c0.3,0.3,0.7,0.3,1.2,0.1s0.5-0.6,0.4-1c-0.1-0.3-0.2-0.5-0.4-0.7
		c-1.5-1.3-3-2.5-4.5-3.9c-0.4-0.3-1-0.3-1.5,0.2c-1.3,1.3-2.5,2.5-3.8,3.8c-0.1,0.1-0.3,0.3-0.3,0.5c-0.2,0.4,0,1,0.4,1.2
		c0.4,0.3,1,0.2,1.3-0.1C-0.1,17.4,0.6,16.7,1.3,15.9z M21.6,7.5L21.6,7.5c0,2.6,0,5.3,0,7.9c0,0.4,0.1,0.7,0.4,1.1
		c2.6,2.1,5.3,4.1,8.1,6.3c0.2,0.2,0.6,0.2,0.8,0.2c0.3-0.1,0.6-0.4,0.7-0.7c0.2-0.4-0.1-0.8-0.4-1.2c-2.3-1.8-4.8-3.7-7.1-5.5
		c-0.3-0.2-0.3-0.4-0.3-0.7c0-3.6,0-7.2,0-10.8c0-1.4,0-2.9,0-4.2c0-0.4-0.2-0.7-0.5-1c-0.3-0.2-0.7-0.2-1.1,0
		c-0.3,0.2-0.4,0.5-0.4,1C21.6,2.2,21.6,4.8,21.6,7.5z M19-7.3c-0.7,0-1.2,0.4-1.2,1.1c0,0.5,0.5,1.1,1.1,1.1s1.2-0.4,1.2-1.1
		C20-6.7,19.6-7.3,19-7.3z M4.7,2.8c0,0.5,0.4,1.1,1.1,1.1c0.5,0,1.1-0.5,1.2-1.2c0-0.5-0.4-1.1-1-1.1S4.7,2.3,4.7,2.8z M3.9,7.5
		C4.5,7.5,5,7,5,6.3c0-0.5-0.4-1.1-1.1-1.1c-0.5,0-1.1,0.5-1.1,1.2C2.9,7,3.3,7.5,3.9,7.5z M16.2-5c0-0.5-0.4-1-1-1.1
		c-0.6,0-1.2,0.4-1.3,1.1c0,0.5,0.4,1.1,1,1.1C15.5-3.9,16.2-4.4,16.2-5z M12.6-3c0-0.5-0.4-1.1-1.1-1c-0.5,0-1.2,0.5-1.2,1.2
		c0,0.5,0.4,1.1,1.1,1.1C12-2,12.6-2.5,12.6-3z M8.2,0.7c0.6,0,1.2-0.5,1.2-1.2C9.4-1,9-1.6,8.3-1.6c-0.5,0-1.2,0.5-1.2,1.2
		C7.3,0.3,7.7,0.7,8.2,0.7z"/>
	<path class="st1" d="M17.9-6.2c-0.1-0.5,0.4-1.1,1.2-1.1c0.5,0,1.1,0.4,1.1,1.1S19.7-5.1,19-5.1"/>
	<path class="st1" d="M14.1-5c0-0.6,0.5-1.1,1.3-1.1C15.8-6,16.2-5.6,16.2-5S15.7-3.9,15-3.9"/>
</g>
<g class="st0">
	<g class="st2">
		<path class="st3" d="M21.5-9C11.7-9,3.7-1,3.7,8.8c0,9.5,16.4,28.1,17.1,28.9c0.3,0.3,0.9,0.4,1.3,0.1l0.1-0.1
			c0.7-0.8,17.1-19.4,17.1-28.9C39.3-1,31.3-9,21.5-9z M21.5,35.6c-3.1-3.7-16-19-16-26.9c0-8.9,7.1-16,16-16s16,7.1,16,16
			C37.5,16.6,24.6,32,21.5,35.6z"/>
	</g>
</g>
<g class="st0">
	<g class="st2">
		<path class="st3" d="M21.5-0.1c-4.7,0-8.6,3.9-8.6,8.6s3.9,8.6,8.6,8.6s8.6-3.9,8.6-8.6S26.2-0.1,21.5-0.1z M21.5,15.5
			c-3.9,0-7-3.1-7-7s3.1-7,7-7s7,3.1,7,7S25.4,15.5,21.5,15.5z"/>
	</g>
</g>
<g class="st0">
	<path class="st1" d="M26.4,28.8c0,1-0.1,2,0,3c0.2,2-0.8,3.3-2.4,4.2c-2.3,1.3-4.8,2-7.3,2.2c-4.3,0.3-8.6,0.6-12.8-0.6
		c-1.6-0.5-3.2-1.2-4.7-2c-1.1-0.6-1.6-1.7-1.6-3c0-6.6,0-13.2,0-19.8c0-1.3,0.5-2.2,1.5-2.9C1,8.4,3.3,7.8,5.6,7.4
		c3.5-0.6,7-0.7,10.5-0.3c0.1,0,0.3,0,0.6,0c0-1.2,0-2.3,0-3.5c0-2.4,0-4.8,0-7.1c0-1.2,0.7-2.1,1.6-2.8c1.6-1.3,3.5-2,5.5-2.3
		c5.7-1,11.4-1.1,17,0.6c0.8,0.2,1.6,0.6,2.3,1c1.6,0.9,2.4,2.1,2.4,4.1c-0.1,8.6-0.1,17.1,0,25.7c0,1.8-0.8,3-2.2,3.8
		c-2.5,1.5-5.3,2.1-8.2,2.3c-2.6,0.2-5.2,0-7.8,0C27,28.8,26.8,28.8,26.4,28.8z M31.3-7.4c-3.4,0-6.4,0.3-9.4,1.4
		c-1,0.4-1.8,0.9-2.7,1.5c-0.7,0.5-0.7,1.2,0,1.6c0.9,0.6,1.9,1.3,3,1.6c4.5,1.5,9.1,1.7,13.7,0.9c1.9-0.3,3.8-0.9,5.6-1.6
		c0.7-0.3,1.7-1.1,1.8-1.7c0.1-1-1-1.4-1.8-1.8C38.2-7,34.6-7.3,31.3-7.4z M12,16.5c2.4-0.3,4.9-0.5,7.3-1.1c1.5-0.4,3-1.2,4.4-2
		c0.8-0.5,0.8-1.1,0-1.7s-1.8-1.1-2.7-1.5C15.5,8.5,10.1,8.5,4.7,9.7C3.4,10,2,10.6,0.8,11.2c-1.6,0.9-1.5,1.8,0,2.7
		c0.5,0.3,1,0.6,1.6,0.8C5.4,15.9,8.6,16.2,12,16.5z M-0.3,22.8c-0.4,3.6,0.2,4.6,3.3,5.6c4.7,1.5,9.6,1.7,14.4,0.8
		c2-0.4,3.8-1.2,5.7-1.9c0.5-0.2,1-0.8,1.1-1.4c0.2-1,0.1-2.1,0.1-3.2C16,26,7.9,26-0.3,22.8z M-0.3,29.6c-0.2,3.7-0.5,3.9,2.9,5.4
		c0.3,0.1,0.6,0.2,0.9,0.3c5.1,1.4,10.2,1.5,15.4,0.4c1.3-0.3,2.6-0.8,3.8-1.4c0.6-0.3,1.3-1,1.4-1.6c0.2-1,0.1-2.2,0.1-3.2
		C16,32.7,7.9,32.7-0.3,29.6z M18.9-0.1c-0.2,3.8-0.7,4,3.3,5.6c0.1,0,0.1,0,0.2,0c4.5,1.4,9.2,1.5,13.8,0.8c1.9-0.3,3.8-1,5.7-1.7
		c0.6-0.2,1.3-0.9,1.4-1.4c0.2-1.1,0.1-2.3,0.1-3.3C35.1,3,27,3,18.9-0.1z M-0.4,16.1c0,1-0.1,2,0,3.1c0,0.4,0.4,0.9,0.7,1.2
		c0.4,0.4,1,0.7,1.5,0.9c6.1,2.3,12.3,2.3,18.6,0.6c1-0.3,2-0.8,2.9-1.4c0.4-0.2,0.8-0.7,0.8-1.1c0.1-1.1,0-2.2,0-3.2
		C16,19.3,7.9,19.3-0.4,16.1z M26.4,13.1c0.9,0.1,1.8,0.2,2.6,0.2c4,0.2,7.9,0,11.6-1.5c2.7-1,3.4-2.6,2.6-5.3
		C35,9.6,26.9,9.7,18.8,6.4c-0.2,0.6,0.1,0.8,0.7,1.1C21,8,22.6,8.5,24,9.3C25.5,10,26.5,11.2,26.4,13.1z M43.4,13.1
		c-5.4,2.6-11.1,2.8-16.9,2.3c0,1.5,0,3,0,4.4c0.2,0,0.4,0.1,0.5,0.1c3.6,0.5,7.1,0.3,10.7-0.4c1.4-0.3,2.9-0.9,4.2-1.5
		c0.6-0.3,1.3-1,1.4-1.6C43.5,15.3,43.4,14.2,43.4,13.1z M43.3,19.8c-5.4,2.7-11.1,2.7-16.8,2.3c0,1.5,0,3,0,4.4
		c3.4,0.5,6.7,0.5,9.9-0.1c1.8-0.4,3.6-1,5.4-1.7c0.6-0.2,1.3-0.9,1.5-1.5C43.5,22.1,43.3,21,43.3,19.8z"/>
</g>
<g>
	<path class="st4" d="M29.6,7.7C29,8.2,28.4,8.2,27.7,8c-1-0.4-2.1-0.6-3.2-0.9c-0.3-0.1-0.6-0.2-0.9-0.2c-1.4,0-2.8,0-4.3,0
		c-0.8,0-1.5,0.2-2,0.7c-0.5,0.6-1.2,0.6-1.9,0.6c-0.1,0-0.2,0-0.3,0c-0.9,0.1-1.4-0.5-2.1-0.8c0.1-0.2,0.2-0.3,0.3-0.4
		c0.4-0.6,0.3-0.9-0.3-1.3c-1.1-0.7-2.2-1.4-3.4-2C9,3.4,8.8,3.4,8.4,4c-2.2,3.7-4.6,7.3-6.9,10.9c-0.3,0.5-0.3,0.9,0.3,1.1
		c1.1,0.6,2.3,1.3,3.4,1.9c0.5,0.3,0.8,0.3,1.1-0.3c0.3-0.4,0.5-0.8,0.7-1.1c0.7,0.5,1.4,1.1,2,1.7c-0.3,0.4-0.4,0.7-0.6,1.1
		c-0.8,1.3-0.2,2.6,1.2,3.1c0.1,0,0.2,0.1,0.2,0.1c0.2,1.5,0.8,2.1,2.5,2.2c0.6,1.2,1,1.4,2.4,1.4c0.1,0,0.3,0.1,0.3,0.2
		c0.9,1.3,2.6,1.4,3.4,0.1c0.2-0.3,0.3-0.3,0.5-0.2c1.2,0.5,2.3,0.9,3.5,1.4c0.3,0.1,0.5,0.2,0.9,0.2c0.9,0,1.6-0.4,2.1-1.2
		c0.3-0.4,0.5-0.5,0.9-0.5c0.9,0,1.6-0.4,2.1-1.1c0.3-0.3,0.4-0.5,0.6-0.9c0.1-0.1,0.2-0.3,0.3-0.3c0.7-0.3,1.1-0.8,1.5-1.4
		c0.2-0.2,0.4-0.3,0.5-0.3c1-0.2,1.7-0.8,2-1.8c0.3-0.8,0-1.4-0.4-2c0.9-0.6,1.7-1.2,2.6-1.8c0.3,0.4,0.5,0.7,0.6,1
		c0.4,0.5,0.6,0.6,1.2,0.3c1.1-0.5,2.1-1.2,3.2-1.7c0.7-0.4,0.8-0.7,0.3-1.4c-1-1.6-2-3.2-3.1-4.8c-1.3-2-2.5-3.8-3.7-5.8
		c-0.3-0.5-0.6-0.5-1-0.3c-1.2,0.7-2.5,1.5-3.7,2.2c-0.4,0.3-0.5,0.5-0.3,0.9C29.4,7.1,29.4,7.4,29.6,7.7z"/>
	<g>
		<path class="st3" d="M30.6,6.8c2.1,3.2,4.3,6.5,6.3,9.7c0.9-0.5,1.6-0.9,2.6-1.4c-2.1-3.3-4.2-6.6-6.3-9.9
			C32.3,5.7,31.6,6.2,30.6,6.8z"/>
		<path class="st3" d="M29.9,9.1c-0.7,0.5-1.5,0.5-2.4,0.3c-1.1-0.4-2.2-0.6-3.2-0.9c-0.3-0.1-0.5-0.1-0.8-0.1c-1.4,0-2.6,0-4,0
			c-0.7,0-1.4,0.3-1.7,0.9c-0.4,0.5-0.8,1.1-1.2,1.6c-0.4,0.5-0.8,1.2-1.3,1.8c0.6,0,1.1,0,1.6,0c0.5,0.1,0.9-0.2,1.2-0.6
			c0.1-0.3,0.3-0.4,0.4-0.5c0.3-0.3,0.6-0.6,0.9-0.7c1-0.3,2-0.3,2.9,0.3c2.9,2,5.8,3.8,8.7,5.8c0.8,0.5,0.8,0.5,1.6,0
			c0.7-0.5,1.4-1,2.1-1.5c-1.4-2.2-2.8-4.3-4.3-6.5C30.2,9,30,9.1,29.9,9.1z"/>
		<g>
			<path class="st5" d="M16.7,21.5c0.2-0.3,0.1-0.6-0.3-0.9c-0.3-0.3-0.6-0.2-0.9,0.2c-0.6,0.9-1.3,1.9-1.9,2.9
				c-0.3,0.5,0.1,0.9,0.7,1c0.1-0.1,0.3-0.3,0.5-0.4c0.5-0.7,0.9-1.4,1.4-2C16.4,22,16.5,21.8,16.7,21.5z"/>
			<path class="st5" d="M12.5,22.8c0.9-1.3,1.7-2.6,2.6-3.8c0.1,0,0.1-0.2,0.1-0.3c0-0.4-0.3-0.6-0.5-0.7c-0.3-0.2-0.6,0-0.8,0.3
				c-0.9,1.4-1.7,2.6-2.6,3.9c-0.3,0.4-0.2,0.7,0.3,0.9"/>
			<path class="st5" d="M11.3,18c-0.1,0-0.2,0.1-0.3,0.2c-0.1,0-0.1,0.1-0.2,0.2c-0.3,0.6-0.8,1.2-1.2,1.8c-0.3,0.4-0.2,0.7,0.3,0.9
				c0.3,0.3,0.6,0.2,0.9-0.3c0.4-0.6,0.8-1.3,1.2-1.9C12.3,18.5,11.9,18,11.3,18z"/>
			<path class="st5" d="M30.6,6.8c2.1,3.2,4.3,6.5,6.3,9.7c0.9-0.5,1.6-0.9,2.6-1.4c-2.1-3.3-4.2-6.6-6.3-9.9
				C32.3,5.7,31.6,6.2,30.6,6.8z"/>
			<path class="st5" d="M29.9,9.1c-0.7,0.5-1.5,0.5-2.4,0.3c-1.1-0.4-2.2-0.6-3.2-0.9c-0.3-0.1-0.5-0.1-0.8-0.1c-1.4,0-2.6,0-4,0
				c-0.7,0-1.4,0.3-1.7,0.9c-0.4,0.5-0.8,1.1-1.2,1.6c-0.4,0.5-0.8,1.2-1.3,1.8c0.6,0,1.1,0,1.6,0c0.5,0.1,0.9-0.2,1.2-0.6
				c0.1-0.3,0.3-0.4,0.4-0.5c0.3-0.3,0.6-0.6,0.9-0.7c1-0.3,2-0.3,2.9,0.3c2.9,2,5.8,3.8,8.7,5.8c0.8,0.5,0.8,0.5,1.6,0
				c0.7-0.5,1.4-1,2.1-1.5c-1.4-2.2-2.8-4.3-4.3-6.5C30.2,9,30,9.1,29.9,9.1z"/>
			<path class="st5" d="M31.4,18.7c-3.2-2.2-6.5-4.3-9.8-6.5c-1-0.7-1.9-0.5-2.6,0.5c-0.1,0.1-0.1,0.2-0.1,0.3
				c-0.4,0.6-1,0.9-1.7,0.9c-1,0-2,0-3.1,0c-0.3,0-0.5-0.1-0.7-0.4c-0.2-0.3-0.1-0.5,0.2-0.8c0.7-0.9,1.4-1.9,2-2.8
				c0.1-0.1,0.2-0.3,0.3-0.5c-1.4,0.4-2.3-0.5-3.4-0.9c-1.4,2.2-2.8,4.4-4.3,6.5c0.7,0.7,1.4,1.4,2,2c1.1-0.7,1.9-0.6,2.9,0.3
				c0.7-0.7,1.6-0.9,2.5-0.5c1,0.5,1.4,1.4,1.1,2.5c0.9,0.3,1.4,0.9,1.6,1.8c0,0.1,0.2,0.3,0.3,0.3c1.1,0.4,1.7,1.5,1.4,2.6
				c-0.1,0.3-0.3,0.5-0.5,0.9c0.1,0,0.1,0.1,0.2,0.1c1.1,0.4,2.1,0.9,3.2,1.3c0.8,0.3,1.3,0.1,1.6-0.8c-0.2-0.1-0.3-0.2-0.4-0.3
				c-0.8-0.4-1.5-0.9-2.3-1.3c-0.4-0.3-0.5-0.6-0.3-0.9s0.5-0.4,0.9-0.3c0.1,0.1,0.3,0.2,0.3,0.2c0.9,0.5,1.8,1,2.6,1.6
				c0.8,0.5,1.6,0.2,2-0.5c-1.5-0.9-2.9-1.8-4.4-2.7c-0.3-0.3-0.4-0.5-0.2-0.9c0.2-0.3,0.5-0.4,0.9-0.3c0.1,0.1,0.2,0.1,0.3,0.2
				c1.1,0.7,2.2,1.4,3.3,2.1c0.9,0.5,1.7,0.3,2.2-0.7c-0.7-0.5-1.5-0.9-2.2-1.4c-0.9-0.5-2-1.2-2.9-1.7c-0.3-0.2-0.5-0.5-0.3-0.8
				c0.1-0.3,0.3-0.5,0.7-0.5c0.2,0,0.3,0.1,0.5,0.3c1.7,1,3.5,2,5.1,3.1C31,21,31.6,21,32,20.4C32.2,19.8,32,19.3,31.4,18.7z"/>
		</g>
		<path class="st3" d="M31.4,18.7c-3.2-2.2-6.5-4.3-9.8-6.5c-1-0.7-1.9-0.5-2.6,0.5c-0.1,0.1-0.1,0.2-0.1,0.3
			c-0.4,0.6-1,0.9-1.7,0.9c-1,0-2,0-3.1,0c-0.3,0-0.5-0.1-0.7-0.4c-0.2-0.3-0.1-0.5,0.2-0.8c0.7-0.9,1.4-1.9,2-2.8
			c0.1-0.1,0.2-0.3,0.3-0.5c-1.4,0.4-2.3-0.5-3.4-0.9c-1.4,2.2-2.8,4.4-4.3,6.5c0.7,0.7,1.4,1.4,2,2c1.1-0.7,1.9-0.6,2.9,0.3
			c0.7-0.7,1.6-0.9,2.5-0.5c1,0.5,1.4,1.4,1.1,2.5c0.9,0.3,1.4,0.9,1.6,1.8c0,0.1,0.2,0.3,0.3,0.3c1.1,0.4,1.7,1.5,1.4,2.6
			c-0.1,0.3-0.3,0.5-0.5,0.9c0.1,0,0.1,0.1,0.2,0.1c1.1,0.4,2.1,0.9,3.2,1.3c0.8,0.3,1.3,0.1,1.6-0.8c-0.2-0.1-0.3-0.2-0.4-0.3
			c-0.8-0.4-1.5-0.9-2.3-1.3c-0.4-0.3-0.5-0.6-0.3-0.9s0.5-0.4,0.9-0.3c0.1,0.1,0.3,0.2,0.3,0.2c0.9,0.5,1.8,1,2.6,1.6
			c0.8,0.5,1.6,0.2,2-0.5c-1.5-0.9-2.9-1.8-4.4-2.7c-0.3-0.3-0.4-0.5-0.2-0.9c0.2-0.3,0.5-0.4,0.9-0.3c0.1,0.1,0.2,0.1,0.3,0.2
			c1.1,0.7,2.2,1.4,3.3,2.1c0.9,0.5,1.7,0.3,2.2-0.7c-0.7-0.5-1.5-0.9-2.2-1.4c-0.9-0.5-2-1.2-2.9-1.7c-0.3-0.2-0.5-0.5-0.3-0.8
			c0.1-0.3,0.3-0.5,0.7-0.5c0.2,0,0.3,0.1,0.5,0.3c1.7,1,3.5,2,5.1,3.1C31,21,31.6,21,32,20.4C32.2,19.8,32,19.3,31.4,18.7z"/>
	</g>
	<path class="st3" d="M5.6,16.4C4.7,15.9,4,15.5,3,15c2.1-3.3,4.2-6.6,6.3-9.9c0.9,0.5,1.6,1,2.6,1.6C9.9,10,7.8,13.2,5.6,16.4z"/>
	<path class="st3" d="M15.2,18.7c-0.1,0.1-0.1,0.3-0.2,0.4c-0.9,1.3-1.7,2.6-2.6,3.8c-0.3,0.4-0.5,0.5-0.9,0.3
		c-0.4-0.3-0.5-0.5-0.3-0.9c0.9-1.4,1.7-2.6,2.6-3.9c0.2-0.3,0.5-0.4,0.8-0.3C15.1,18.1,15.2,18.3,15.2,18.7z"/>
	<path class="st3" d="M14.4,24.8c-0.6,0-0.9-0.5-0.7-1c0.6-0.9,1.3-2,1.9-2.9c0.3-0.3,0.5-0.3,0.9-0.2c0.3,0.3,0.4,0.5,0.3,0.9
		c-0.2,0.3-0.3,0.5-0.5,0.8c-0.5,0.7-0.9,1.4-1.4,2C14.7,24.5,14.5,24.7,14.4,24.8z"/>
	<path class="st3" d="M11.3,18c0.6,0,0.9,0.5,0.6,1c-0.4,0.6-0.8,1.3-1.2,1.9c-0.3,0.4-0.5,0.5-0.9,0.3c-0.3-0.3-0.4-0.5-0.3-0.9
		c0.4-0.6,0.8-1.3,1.2-1.8c0-0.1,0.1-0.2,0.2-0.2C11.1,18.1,11.3,18,11.3,18z"/>
	<path class="st3" d="M18.3,23.7c-0.4,0.5-0.7,1.2-1.1,1.7c-0.3,0.4-0.6,0.5-0.9,0.3c-0.3-0.3-0.4-0.5-0.2-0.9
		c0.4-0.6,0.8-1.2,1.2-1.8c0.2-0.3,0.5-0.4,0.7-0.3c0.3,0.1,0.5,0.4,0.6,0.5"/>
</g>
</svg>
