<?xml version="1.0" encoding="utf-8"?>
<!-- Generator: Adobe Illustrator 22.0.1, SVG Export Plug-In . SVG Version: 6.00 Build 0)  -->
<svg version="1.1" id="Layer_1" xmlns="http://www.w3.org/2000/svg" xmlns:xlink="http://www.w3.org/1999/xlink" x="0px" y="0px"
	 viewBox="0 0 48 48" style="enable-background:new 0 0 48 48;" xml:space="preserve">
<style type="text/css">
	.st0{display:none;}
	.st1{display:inline;fill:#FFFFFF;}
	.st2{display:inline;}
	.st3{fill:#FFFFFF;}
	.st4{display:inline;fill:#525879;}
	.st5{fill:#010101;}
	.st6{fill:none;}
</style>
<g id="Time" class="st0">
	<path class="st1" d="M3.8,25.4c0.1,1,0.2,1.8,0.4,2.6C6.5,39.6,17.4,48,30,45.7c12.5-2.3,19.9-14,17.8-25.6
		c-1.6-8.6-6.9-14.2-15-17.1c-2.2-0.8-4.6-1.1-7-1.1c-0.8,0-1.4,0.3-1.5,1c0,0.6,0.5,1.1,1.4,1.1c0.1,0,0.2,0,0.2,0
		c1.4,0,2.8,0,4.2,0.4C40.7,6.5,47.7,17,45.8,27.7S33.6,45.7,22.9,44c-8.2-1.3-14.6-7.3-16.5-15.4c-0.2-1.1-0.3-2.1-0.5-3.2H6
		c0.2,0.1,0.3,0.3,0.5,0.4c0.7,0.6,1.6,1.4,2.3,2c0.3,0.3,0.7,0.3,1.2,0.1s0.5-0.6,0.4-1c-0.1-0.3-0.2-0.5-0.4-0.7
		c-1.5-1.3-3-2.5-4.5-3.9C5.1,22,4.5,22,4,22.5c-1.3,1.3-2.5,2.5-3.8,3.8c-0.1,0.1-0.3,0.3-0.3,0.5c-0.2,0.4,0,1,0.4,1.2
		c0.4,0.3,1,0.2,1.3-0.1C2.4,26.9,3.1,26.2,3.8,25.4z M24.1,17L24.1,17c0,2.6,0,5.3,0,7.9c0,0.4,0.1,0.7,0.4,1.1
		c2.6,2.1,5.3,4.1,8.1,6.3c0.2,0.2,0.6,0.2,0.8,0.2c0.3-0.1,0.6-0.4,0.7-0.7c0.2-0.4-0.1-0.8-0.4-1.2c-2.3-1.8-4.8-3.7-7.1-5.5
		c-0.3-0.2-0.3-0.4-0.3-0.7c0-3.6,0-7.2,0-10.8c0-1.4,0-2.9,0-4.2c0-0.4-0.2-0.7-0.5-1c-0.3-0.2-0.7-0.2-1.1,0
		c-0.3,0.2-0.4,0.5-0.4,1C24.1,11.7,24.1,14.3,24.1,17z M21.5,2.2c-0.7,0-1.2,0.4-1.2,1.1c0,0.5,0.5,1.1,1.1,1.1s1.2-0.4,1.2-1.1
		C22.5,2.8,22.1,2.2,21.5,2.2z M7.2,12.3c0,0.5,0.4,1.1,1.1,1.1c0.5,0,1.1-0.5,1.2-1.2c0-0.5-0.4-1.1-1-1.1S7.2,11.8,7.2,12.3z
		 M6.4,17c0.6,0,1.1-0.5,1.1-1.2c0-0.5-0.4-1.1-1.1-1.1c-0.5,0-1.1,0.5-1.1,1.2C5.4,16.5,5.8,17,6.4,17z M18.7,4.5
		c0-0.5-0.4-1-1-1.1c-0.6,0-1.2,0.4-1.3,1.1c0,0.5,0.4,1.1,1,1.1C18,5.6,18.7,5.1,18.7,4.5z M15.1,6.5c0-0.5-0.4-1.1-1.1-1
		c-0.5,0-1.2,0.5-1.2,1.2c0,0.5,0.4,1.1,1.1,1.1C14.5,7.5,15.1,7,15.1,6.5z M10.7,10.2c0.6,0,1.2-0.5,1.2-1.2c0-0.5-0.4-1.1-1.1-1.1
		c-0.5,0-1.2,0.5-1.2,1.2C9.8,9.8,10.2,10.2,10.7,10.2z"/>
	<path class="st1" d="M20.4,3.3c-0.1-0.5,0.4-1.1,1.2-1.1c0.5,0,1.1,0.4,1.1,1.1s-0.5,1.1-1.2,1.1"/>
	<path class="st1" d="M16.6,4.5c0-0.6,0.5-1.1,1.3-1.1c0.4,0.1,0.8,0.5,0.8,1.1s-0.5,1.1-1.2,1.1"/>
</g>
<g class="st0">
	<g class="st2">
		<path class="st3" d="M24,0.5c-9.8,0-17.8,8-17.8,17.8c0,9.5,16.4,28.1,17.1,28.9c0.3,0.3,0.9,0.4,1.3,0.1l0.1-0.1
			c0.7-0.8,17.1-19.4,17.1-28.9C41.8,8.5,33.8,0.5,24,0.5z M24,45.1c-3.1-3.7-16-19-16-26.9c0-8.9,7.1-16,16-16s16,7.1,16,16
			C40,26.1,27.1,41.5,24,45.1z"/>
	</g>
</g>
<g class="st0">
	<g class="st2">
		<path class="st3" d="M24,9.4c-4.7,0-8.6,3.9-8.6,8.6s3.9,8.6,8.6,8.6s8.6-3.9,8.6-8.6S28.7,9.4,24,9.4z M24,25c-3.9,0-7-3.1-7-7
			s3.1-7,7-7s7,3.1,7,7S27.9,25,24,25z"/>
	</g>
</g>
<g class="st0">
	<path class="st1" d="M28.9,38.3c0,1-0.1,2,0,3c0.2,2-0.8,3.3-2.4,4.2c-2.3,1.3-4.8,2-7.3,2.2c-4.3,0.3-8.6,0.6-12.8-0.6
		c-1.6-0.5-3.2-1.2-4.7-2c-1.1-0.6-1.6-1.7-1.6-3c0-6.6,0-13.2,0-19.8c0-1.3,0.5-2.2,1.5-2.9c1.9-1.5,4.2-2.1,6.5-2.5
		c3.5-0.6,7-0.7,10.5-0.3c0.1,0,0.3,0,0.6,0c0-1.2,0-2.3,0-3.5c0-2.4,0-4.8,0-7.1c0-1.2,0.7-2.1,1.6-2.8c1.6-1.3,3.5-2,5.5-2.3
		c5.7-1,11.4-1.1,17,0.6c0.8,0.2,1.6,0.6,2.3,1C47.2,3.4,48,4.6,48,6.6c-0.1,8.6-0.1,17.1,0,25.7c0,1.8-0.8,3-2.2,3.8
		c-2.5,1.5-5.3,2.1-8.2,2.3c-2.6,0.2-5.2,0-7.8,0C29.5,38.3,29.3,38.3,28.9,38.3z M33.8,2.1c-3.4,0-6.4,0.3-9.4,1.4
		c-1,0.4-1.8,0.9-2.7,1.5c-0.7,0.5-0.7,1.2,0,1.6c0.9,0.6,1.9,1.3,3,1.6c4.5,1.5,9.1,1.7,13.7,0.9c1.9-0.3,3.8-0.9,5.6-1.6
		c0.7-0.3,1.7-1.1,1.8-1.7c0.1-1-1-1.4-1.8-1.8C40.7,2.5,37.1,2.2,33.8,2.1z M14.5,26c2.4-0.3,4.9-0.5,7.3-1.1c1.5-0.4,3-1.2,4.4-2
		c0.8-0.5,0.8-1.1,0-1.7s-1.8-1.1-2.7-1.5C18,18,12.6,18,7.2,19.2c-1.3,0.3-2.7,0.9-3.9,1.5c-1.6,0.9-1.5,1.8,0,2.7
		c0.5,0.3,1,0.6,1.6,0.8C7.9,25.4,11.1,25.7,14.5,26z M2.2,32.3c-0.4,3.6,0.2,4.6,3.3,5.6c4.7,1.5,9.6,1.7,14.4,0.8
		c2-0.4,3.8-1.2,5.7-1.9c0.5-0.2,1-0.8,1.1-1.4c0.2-1,0.1-2.1,0.1-3.2C18.5,35.5,10.4,35.5,2.2,32.3z M2.2,39.1
		C2,42.8,1.7,43,5.1,44.5c0.3,0.1,0.6,0.2,0.9,0.3c5.1,1.4,10.2,1.5,15.4,0.4c1.3-0.3,2.6-0.8,3.8-1.4c0.6-0.3,1.3-1,1.4-1.6
		c0.2-1,0.1-2.2,0.1-3.2C18.5,42.2,10.4,42.2,2.2,39.1z M21.4,9.4c-0.2,3.8-0.7,4,3.3,5.6c0.1,0,0.1,0,0.2,0
		c4.5,1.4,9.2,1.5,13.8,0.8c1.9-0.3,3.8-1,5.7-1.7c0.6-0.2,1.3-0.9,1.4-1.4c0.2-1.1,0.1-2.3,0.1-3.3C37.6,12.5,29.5,12.5,21.4,9.4z
		 M2.1,25.6c0,1-0.1,2,0,3.1c0,0.4,0.4,0.9,0.7,1.2c0.4,0.4,1,0.7,1.5,0.9c6.1,2.3,12.3,2.3,18.6,0.6c1-0.3,2-0.8,2.9-1.4
		c0.4-0.2,0.8-0.7,0.8-1.1c0.1-1.1,0-2.2,0-3.2C18.5,28.8,10.4,28.8,2.1,25.6z M28.9,22.6c0.9,0.1,1.8,0.2,2.6,0.2
		c4,0.2,7.9,0,11.6-1.5c2.7-1,3.4-2.6,2.6-5.3c-8.2,3.1-16.3,3.2-24.4-0.1c-0.2,0.6,0.1,0.8,0.7,1.1c1.5,0.5,3.1,1,4.5,1.8
		C28,19.5,29,20.7,28.9,22.6z M45.9,22.6c-5.4,2.6-11.1,2.8-16.9,2.3c0,1.5,0,3,0,4.4c0.2,0,0.4,0.1,0.5,0.1
		c3.6,0.5,7.1,0.3,10.7-0.4c1.4-0.3,2.9-0.9,4.2-1.5c0.6-0.3,1.3-1,1.4-1.6C46,24.8,45.9,23.7,45.9,22.6z M45.8,29.3
		C40.4,32,34.7,32,29,31.6c0,1.5,0,3,0,4.4c3.4,0.5,6.7,0.5,9.9-0.1c1.8-0.4,3.6-1,5.4-1.7c0.6-0.2,1.3-0.9,1.5-1.5
		C46,31.6,45.8,30.5,45.8,29.3z"/>
</g>
<g class="st0">
	<path class="st4" d="M33.6,15.8c-0.7,0.6-1.4,0.6-2.2,0.4c-1.2-0.5-2.5-0.7-3.8-1.1c-0.4-0.1-0.7-0.2-1.1-0.2c-1.7,0-3.3,0-5,0
		c-0.9,0-1.8,0.2-2.4,0.8c-0.6,0.7-1.4,0.7-2.2,0.7c-0.1,0-0.2,0-0.3,0c-1,0.1-1.7-0.6-2.5-0.9c0.1-0.2,0.2-0.3,0.3-0.5
		c0.5-0.7,0.4-1.1-0.4-1.5c-1.3-0.8-2.6-1.7-4-2.4c-0.6-0.4-0.9-0.3-1.3,0.3C6.1,15.7,3.3,20,0.6,24.2c-0.4,0.6-0.3,1,0.4,1.3
		c1.3,0.7,2.7,1.5,4,2.2c0.6,0.4,0.9,0.3,1.3-0.4c0.3-0.5,0.6-0.9,0.8-1.3c0.7,0.7,1.5,1.5,2.2,2.2C9,28.7,8.8,29,8.6,29.5
		C7.7,31,8.4,32.6,10,33.1c0.1,0,0.2,0.1,0.2,0.1c0.2,1.8,0.9,2.5,2.9,2.6c0.7,1.4,1.2,1.7,2.8,1.6c0.1,0,0.3,0.1,0.4,0.2
		c1,1.5,3,1.6,4,0.1c0.2-0.3,0.4-0.3,0.6-0.2c1.4,0.6,2.7,1,4.1,1.6c0.3,0.1,0.6,0.2,1,0.2c1.1,0,1.9-0.5,2.5-1.4
		c0.3-0.5,0.6-0.6,1-0.6c1,0,1.9-0.5,2.5-1.3c0.3-0.4,0.5-0.6,0.7-1c0.1-0.1,0.2-0.3,0.3-0.3c0.8-0.3,1.3-0.9,1.8-1.6
		c0.2-0.2,0.5-0.4,0.6-0.4c1.2-0.2,2-0.9,2.4-2.1c0.3-0.9,0-1.7-0.5-2.4c1-0.7,2-1.4,3.1-2.1c0.3,0.5,0.6,0.8,0.7,1.2
		c0.5,0.6,0.7,0.7,1.4,0.4c1.3-0.6,2.5-1.4,3.8-2c0.8-0.5,0.9-0.8,0.4-1.6c-1.2-1.9-2.4-3.8-3.6-5.7c-1.5-2.3-2.9-4.5-4.3-6.8
		c-0.4-0.6-0.7-0.6-1.2-0.4c-1.4,0.8-2.9,1.8-4.3,2.6c-0.5,0.3-0.6,0.6-0.3,1.1C33.3,15.1,33.4,15.4,33.6,15.8z"/>
	<g class="st2">
		<path class="st5" d="M16.7,28.8c0-0.5-0.3-0.7-0.6-0.8c-0.4-0.2-0.7,0-0.9,0.4c-1,1.6-2,3.1-3.1,4.6c-0.3,0.5-0.2,0.8,0.3,1.1
			s0.8,0.2,1.1-0.3c1-1.5,2-3.1,3.1-4.5C16.6,29.1,16.7,28.9,16.7,28.8z"/>
		<path class="st5" d="M18.4,32.1c0.2-0.4,0.1-0.7-0.3-1s-0.7-0.2-1,0.2c-0.7,1.1-1.5,2.2-2.2,3.4c-0.4,0.6,0.1,1.1,0.8,1.2
			c0.1-0.1,0.4-0.3,0.6-0.5c0.6-0.8,1-1.7,1.6-2.4C18,32.6,18.2,32.4,18.4,32.1z"/>
		<path class="st5" d="M12,27.9c-0.1,0-0.2,0.1-0.4,0.2c-0.1,0-0.1,0.1-0.2,0.2C11,29,10.5,29.7,10,30.4c-0.3,0.5-0.2,0.8,0.3,1.1
			c0.4,0.3,0.7,0.2,1-0.3c0.5-0.7,0.9-1.5,1.4-2.2C13.2,28.5,12.8,27.9,12,27.9z"/>
		<path class="st5" d="M9.8,12.8c-2.5,3.9-4.9,7.8-7.4,11.7c1,0.6,1.9,1.1,3,1.6c2.5-3.8,5-7.6,7.4-11.4C11.8,14,10.9,13.4,9.8,12.8
			z"/>
		<path class="st5" d="M20,33.5c-0.3-0.2-0.6,0-0.8,0.3c-0.5,0.7-0.9,1.4-1.4,2.1c-0.3,0.5-0.3,0.9,0.2,1.1c0.4,0.3,0.8,0.2,1.1-0.3
			c0.5-0.6,0.8-1.4,1.3-2c0.1-0.2,0.2-0.3,0.3-0.6C20.5,33.9,20.3,33.6,20,33.5z"/>
		<path class="st3" d="M34.8,14.7c2.5,3.8,5,7.6,7.4,11.4c1-0.6,1.9-1.1,3-1.6c-2.5-3.9-4.9-7.8-7.4-11.7
			C36.8,13.4,35.9,14,34.8,14.7z"/>
		<path class="st3" d="M33.9,17.5c-0.8,0.6-1.8,0.6-2.8,0.3c-1.3-0.5-2.6-0.7-3.8-1.1c-0.3-0.1-0.6-0.1-0.9-0.1c-1.6,0-3.1,0-4.7,0
			c-0.8,0-1.6,0.4-2,1c-0.5,0.6-0.9,1.3-1.4,1.9s-0.9,1.4-1.5,2.1c0.7,0,1.3,0,1.9,0c0.6,0.1,1.1-0.2,1.4-0.7
			c0.1-0.3,0.3-0.5,0.5-0.6c0.4-0.3,0.7-0.7,1.1-0.8c1.2-0.3,2.3-0.4,3.4,0.4c3.4,2.3,6.8,4.5,10.2,6.8c0.9,0.6,0.9,0.6,1.9,0
			c0.8-0.6,1.7-1.2,2.5-1.8c-1.7-2.6-3.3-5.1-5-7.7C34.3,17.3,34.1,17.4,33.9,17.5z"/>
		<g>
			<path class="st6" d="M20,33.5c-0.3-0.2-0.6,0-0.8,0.3c-0.5,0.7-0.9,1.4-1.4,2.1c-0.3,0.5-0.3,0.9,0.2,1.1
				c0.4,0.3,0.8,0.2,1.1-0.3c0.5-0.6,0.8-1.4,1.3-2c0.1-0.2,0.2-0.3,0.3-0.6C20.5,33.9,20.3,33.6,20,33.5z"/>
			<path class="st6" d="M18.4,32.1c0.2-0.4,0.1-0.7-0.3-1s-0.7-0.2-1,0.2c-0.7,1.1-1.5,2.2-2.2,3.4c-0.4,0.6,0.1,1.1,0.8,1.2
				c0.1-0.1,0.4-0.3,0.6-0.5c0.6-0.8,1-1.7,1.6-2.4C18,32.6,18.2,32.4,18.4,32.1z"/>
			<path class="st6" d="M16.7,28.8c0-0.5-0.3-0.7-0.6-0.8c-0.4-0.2-0.7,0-0.9,0.4c-1,1.6-2,3.1-3.1,4.6c-0.3,0.5-0.2,0.8,0.3,1.1
				s0.8,0.2,1.1-0.3c1-1.5,2-3.1,3.1-4.5C16.6,29.1,16.7,28.9,16.7,28.8z"/>
			<path class="st6" d="M9.8,12.8c-2.5,3.9-4.9,7.8-7.4,11.7c1,0.6,1.9,1.1,3,1.6c2.5-3.8,5-7.6,7.4-11.4
				C11.8,14,10.9,13.4,9.8,12.8z"/>
			<path class="st6" d="M12,27.9c-0.1,0-0.2,0.1-0.4,0.2c-0.1,0-0.1,0.1-0.2,0.2C11,29,10.5,29.7,10,30.4c-0.3,0.5-0.2,0.8,0.3,1.1
				c0.4,0.3,0.7,0.2,1-0.3c0.5-0.7,0.9-1.5,1.4-2.2C13.2,28.5,12.8,27.9,12,27.9z"/>
			<path class="st6" d="M34.8,14.7c2.5,3.8,5,7.6,7.4,11.4c1-0.6,1.9-1.1,3-1.6c-2.5-3.9-4.9-7.8-7.4-11.7
				C36.8,13.4,35.9,14,34.8,14.7z"/>
			<path class="st6" d="M33.9,17.5c-0.8,0.6-1.8,0.6-2.8,0.3c-1.3-0.5-2.6-0.7-3.8-1.1c-0.3-0.1-0.6-0.1-0.9-0.1c-1.6,0-3.1,0-4.7,0
				c-0.8,0-1.6,0.4-2,1c-0.5,0.6-0.9,1.3-1.4,1.9s-0.9,1.4-1.5,2.1c0.7,0,1.3,0,1.9,0c0.6,0.1,1.1-0.2,1.4-0.7
				c0.1-0.3,0.3-0.5,0.5-0.6c0.4-0.3,0.7-0.7,1.1-0.8c1.2-0.3,2.3-0.4,3.4,0.4c3.4,2.3,6.8,4.5,10.2,6.8c0.9,0.6,0.9,0.6,1.9,0
				c0.8-0.6,1.7-1.2,2.5-1.8c-1.7-2.6-3.3-5.1-5-7.7C34.3,17.3,34.1,17.4,33.9,17.5z"/>
			<path class="st6" d="M35.7,28.8c-3.8-2.6-7.7-5.1-11.5-7.7c-1.2-0.8-2.2-0.6-3.1,0.6C21,21.8,21,21.9,21,22
				c-0.5,0.7-1.2,1.1-2,1.1c-1.2,0-2.4,0-3.6,0c-0.4,0-0.6-0.1-0.8-0.5s-0.1-0.6,0.2-0.9c0.8-1.1,1.6-2.2,2.3-3.3
				c0.1-0.1,0.2-0.3,0.4-0.6c-1.7,0.5-2.7-0.6-4-1.1c-1.7,2.6-3.3,5.2-5,7.7c0.8,0.8,1.6,1.6,2.3,2.3c1.3-0.8,2.2-0.7,3.4,0.3
				c0.8-0.8,1.9-1.1,2.9-0.6c1.2,0.6,1.6,1.6,1.3,2.9c1.1,0.4,1.7,1,1.9,2.1c0,0.1,0.2,0.3,0.4,0.4c1.3,0.5,2,1.8,1.6,3.1
				c-0.1,0.4-0.4,0.6-0.6,1c0.1,0,0.1,0.1,0.2,0.1c1.3,0.5,2.5,1,3.8,1.5c0.9,0.4,1.5,0.1,1.9-0.9c-0.2-0.1-0.3-0.2-0.5-0.3
				c-0.9-0.5-1.8-1-2.7-1.5c-0.5-0.3-0.6-0.7-0.3-1.1c0.2-0.4,0.6-0.5,1.1-0.3c0.1,0.1,0.3,0.2,0.4,0.2c1,0.6,2.1,1.2,3.1,1.9
				c0.9,0.6,1.9,0.2,2.3-0.6c-1.8-1.1-3.4-2.1-5.2-3.2c-0.4-0.3-0.5-0.6-0.2-1c0.2-0.4,0.6-0.5,1.1-0.3c0.1,0.1,0.2,0.1,0.4,0.2
				c1.3,0.8,2.6,1.7,3.9,2.5c1.1,0.6,2,0.4,2.6-0.8c-0.8-0.6-1.8-1-2.6-1.6c-1.1-0.6-2.3-1.4-3.4-2c-0.4-0.2-0.6-0.6-0.4-0.9
				c0.1-0.4,0.4-0.6,0.8-0.6c0.2,0,0.4,0.1,0.6,0.3c2,1.2,4.1,2.4,6,3.6c0.6,0.4,1.3,0.3,1.8-0.4C36.6,30,36.4,29.4,35.7,28.8z"/>
		</g>
		<path class="st3" d="M35.7,28.8c-3.8-2.6-7.7-5.1-11.5-7.7c-1.2-0.8-2.2-0.6-3.1,0.6C21,21.8,21,21.9,21,22
			c-0.5,0.7-1.2,1.1-2,1.1c-1.2,0-2.4,0-3.6,0c-0.4,0-0.6-0.1-0.8-0.5s-0.1-0.6,0.2-0.9c0.8-1.1,1.6-2.2,2.3-3.3
			c0.1-0.1,0.2-0.3,0.4-0.6c-1.7,0.5-2.7-0.6-4-1.1c-1.7,2.6-3.3,5.2-5,7.7c0.8,0.8,1.6,1.6,2.3,2.3c1.3-0.8,2.2-0.7,3.4,0.3
			c0.8-0.8,1.9-1.1,2.9-0.6c1.2,0.6,1.6,1.6,1.3,2.9c1.1,0.4,1.7,1,1.9,2.1c0,0.1,0.2,0.3,0.4,0.4c1.3,0.5,2,1.8,1.6,3.1
			c-0.1,0.4-0.4,0.6-0.6,1c0.1,0,0.1,0.1,0.2,0.1c1.3,0.5,2.5,1,3.8,1.5c0.9,0.4,1.5,0.1,1.9-0.9c-0.2-0.1-0.3-0.2-0.5-0.3
			c-0.9-0.5-1.8-1-2.7-1.5c-0.5-0.3-0.6-0.7-0.3-1.1c0.2-0.4,0.6-0.5,1.1-0.3c0.1,0.1,0.3,0.2,0.4,0.2c1,0.6,2.1,1.2,3.1,1.9
			c0.9,0.6,1.9,0.2,2.3-0.6c-1.8-1.1-3.4-2.1-5.2-3.2c-0.4-0.3-0.5-0.6-0.2-1c0.2-0.4,0.6-0.5,1.1-0.3c0.1,0.1,0.2,0.1,0.4,0.2
			c1.3,0.8,2.6,1.7,3.9,2.5c1.1,0.6,2,0.4,2.6-0.8c-0.8-0.6-1.8-1-2.6-1.6c-1.1-0.6-2.3-1.4-3.4-2c-0.4-0.2-0.6-0.6-0.4-0.9
			c0.1-0.4,0.4-0.6,0.8-0.6c0.2,0,0.4,0.1,0.6,0.3c2,1.2,4.1,2.4,6,3.6c0.6,0.4,1.3,0.3,1.8-0.4C36.6,30,36.4,29.4,35.7,28.8z"/>
	</g>
	<path class="st1" d="M5.4,26.1c-1-0.6-1.9-1-3-1.6c2.5-3.9,4.9-7.8,7.4-11.7c1,0.6,1.9,1.2,3,1.9C10.4,18.5,7.9,22.3,5.4,26.1z"/>
	<path class="st1" d="M16.7,28.8c-0.1,0.1-0.1,0.3-0.2,0.5c-1,1.5-2,3.1-3.1,4.5c-0.3,0.5-0.6,0.6-1.1,0.3S11.7,33.5,12,33
		c1-1.6,2-3.1,3.1-4.6c0.2-0.4,0.6-0.5,0.9-0.4C16.5,28.1,16.7,28.3,16.7,28.8z"/>
	<path class="st1" d="M15.7,35.9c-0.7,0-1.1-0.6-0.8-1.2c0.7-1.1,1.5-2.3,2.2-3.4c0.3-0.4,0.6-0.4,1-0.2c0.4,0.3,0.5,0.6,0.3,1
		c-0.2,0.3-0.4,0.6-0.6,0.9c-0.6,0.8-1,1.7-1.6,2.4C16,35.6,15.8,35.8,15.7,35.9z"/>
	<path class="st1" d="M12,27.9c0.7,0,1.1,0.6,0.7,1.2c-0.5,0.7-0.9,1.5-1.4,2.2c-0.3,0.5-0.6,0.6-1,0.3S9.8,31,10,30.5
		c0.5-0.7,0.9-1.5,1.4-2.1c0-0.1,0.1-0.2,0.2-0.2C11.8,28,12,27.9,12,27.9z"/>
	<path class="st1" d="M20.7,34.1c-0.1,0.3-0.2,0.5-0.3,0.6c-0.5,0.6-0.8,1.4-1.3,2c-0.3,0.5-0.7,0.6-1.1,0.3s-0.5-0.6-0.2-1.1
		c0.5-0.7,0.9-1.4,1.4-2.1c0.2-0.4,0.6-0.5,0.8-0.3C20.3,33.6,20.5,33.9,20.7,34.1z"/>
</g>
<g>
	<path class="st3" d="M38.3,46.1L24,35.7L9.7,46.1l5.5-16.9L0.9,18.8h17.6L24,1.9l5.5,16.9h17.6L32.9,29.2L38.3,46.1z M6,20.5
		L17,28.6l-4.1,13l11.1-8l11.1,8l-4.2-13.1l11.1-8.1H28.2L24,7.3l-4.2,13.1H6L6,20.5z"/>
</g>
</svg>
