<?xml version="1.0" encoding="utf-8"?>
<!-- Generator: Adobe Illustrator 22.0.1, SVG Export Plug-In . SVG Version: 6.00 Build 0)  -->
<svg version="1.1" id="Layer_1" xmlns="http://www.w3.org/2000/svg" xmlns:xlink="http://www.w3.org/1999/xlink" x="0px" y="0px"
	 viewBox="0 0 37 33" style="enable-background:new 0 0 37 33;" xml:space="preserve">
<style type="text/css">
	.st0{display:none;}
	.st1{display:inline;fill:#FFFFFF;}
	.st2{display:inline;}
	.st3{fill:#FFFFFF;}
	.st4{display:inline;fill:#525879;}
	.st5{fill:#010101;}
	.st6{fill:none;}
	.st7{fill:#515778;stroke:#515778;stroke-width:0.5;stroke-miterlimit:10;}
</style>
<g id="Time" class="st0">
	<path class="st1" d="M-1.7,17.9c0.1,1,0.2,1.8,0.4,2.6c2.3,11.6,13.2,20,25.8,17.7c12.5-2.3,19.9-14,17.8-25.6
		C40.7,4,35.4-1.6,27.3-4.5c-2.2-0.8-4.6-1.1-7-1.1c-0.8,0-1.4,0.3-1.5,1c0,0.6,0.5,1.1,1.4,1.1c0.1,0,0.2,0,0.2,0
		c1.4,0,2.8,0,4.2,0.4C35.2-1,42.2,9.5,40.3,20.2s-12.2,18-22.9,16.3C9.2,35.2,2.8,29.2,0.9,21.1C0.7,20,0.6,19,0.4,17.9h0.1
		C0.7,18,0.8,18.2,1,18.3c0.7,0.6,1.6,1.4,2.3,2c0.3,0.3,0.7,0.3,1.2,0.1s0.5-0.6,0.4-1c-0.1-0.3-0.2-0.5-0.4-0.7
		c-1.5-1.3-3-2.5-4.5-3.9c-0.4-0.3-1-0.3-1.5,0.2c-1.3,1.3-2.5,2.5-3.8,3.8c-0.1,0.1-0.3,0.3-0.3,0.5c-0.2,0.4,0,1,0.4,1.2
		c0.4,0.3,1,0.2,1.3-0.1C-3.1,19.4-2.4,18.7-1.7,17.9z M18.6,9.5L18.6,9.5c0,2.6,0,5.3,0,7.9c0,0.4,0.1,0.7,0.4,1.1
		c2.6,2.1,5.3,4.1,8.1,6.3c0.2,0.2,0.6,0.2,0.8,0.2c0.3-0.1,0.6-0.4,0.7-0.7c0.2-0.4-0.1-0.8-0.4-1.2c-2.3-1.8-4.8-3.7-7.1-5.5
		c-0.3-0.2-0.3-0.4-0.3-0.7c0-3.6,0-7.2,0-10.8c0-1.4,0-2.9,0-4.2c0-0.4-0.2-0.7-0.5-1c-0.3-0.2-0.7-0.2-1.1,0
		c-0.3,0.2-0.4,0.5-0.4,1C18.6,4.2,18.6,6.8,18.6,9.5z M16-5.3c-0.7,0-1.2,0.4-1.2,1.1c0,0.5,0.5,1.1,1.1,1.1c0.6,0,1.2-0.4,1.2-1.1
		C17-4.7,16.6-5.3,16-5.3z M1.7,4.8c0,0.5,0.4,1.1,1.1,1.1c0.5,0,1.1-0.5,1.2-1.2c0-0.5-0.4-1.1-1-1.1S1.7,4.3,1.7,4.8z M0.9,9.5
		C1.5,9.5,2,9,2,8.3c0-0.5-0.4-1.1-1.1-1.1c-0.5,0-1.1,0.5-1.1,1.2C-0.1,9,0.3,9.5,0.9,9.5z M13.2-3c0-0.5-0.4-1-1-1.1
		c-0.6,0-1.2,0.4-1.3,1.1c0,0.5,0.4,1.1,1,1.1S13.2-2.4,13.2-3z M9.6-1c0-0.5-0.4-1.1-1.1-1C8-2,7.3-1.5,7.3-0.8
		c0,0.5,0.4,1.1,1.1,1.1C9,0,9.6-0.5,9.6-1z M5.2,2.7c0.6,0,1.2-0.5,1.2-1.2C6.4,1,6,0.4,5.3,0.4c-0.5,0-1.2,0.5-1.2,1.2
		C4.3,2.3,4.7,2.7,5.2,2.7z"/>
	<path class="st1" d="M14.9-4.2c-0.1-0.5,0.4-1.1,1.2-1.1c0.5,0,1.1,0.4,1.1,1.1S16.7-3.1,16-3.1"/>
	<path class="st1" d="M11.1-3c0-0.6,0.5-1.1,1.3-1.1C12.8-4,13.2-3.6,13.2-3S12.7-1.9,12-1.9"/>
</g>
<g class="st0">
	<g class="st2">
		<path class="st3" d="M18.5-7C8.7-7,0.7,1,0.7,10.8c0,9.5,16.4,28.1,17.1,28.9c0.3,0.3,0.9,0.4,1.3,0.1l0.1-0.1
			c0.7-0.8,17.1-19.4,17.1-28.9C36.3,1,28.3-7,18.5-7z M18.5,37.6c-3.1-3.7-16-19-16-26.9c0-8.9,7.1-16,16-16s16,7.1,16,16
			C34.5,18.6,21.6,34,18.5,37.6z"/>
	</g>
</g>
<g class="st0">
	<g class="st2">
		<path class="st3" d="M18.5,1.9c-4.7,0-8.6,3.9-8.6,8.6s3.9,8.6,8.6,8.6s8.6-3.9,8.6-8.6S23.2,1.9,18.5,1.9z M18.5,17.5
			c-3.9,0-7-3.1-7-7s3.1-7,7-7s7,3.1,7,7S22.4,17.5,18.5,17.5z"/>
	</g>
</g>
<g class="st0">
	<path class="st1" d="M23.4,30.8c0,1-0.1,2,0,3c0.2,2-0.8,3.3-2.4,4.2c-2.3,1.3-4.8,2-7.3,2.2c-4.3,0.3-8.6,0.6-12.8-0.6
		c-1.6-0.5-3.2-1.2-4.7-2c-1.1-0.6-1.6-1.7-1.6-3c0-6.6,0-13.2,0-19.8c0-1.3,0.5-2.2,1.5-2.9c1.9-1.5,4.2-2.1,6.5-2.5
		c3.5-0.6,7-0.7,10.5-0.3c0.1,0,0.3,0,0.6,0c0-1.2,0-2.3,0-3.5c0-2.4,0-4.8,0-7.1c0-1.2,0.7-2.1,1.6-2.8c1.6-1.3,3.5-2,5.5-2.3
		c5.7-1,11.4-1.1,17,0.6c0.8,0.2,1.6,0.6,2.3,1c1.6,0.9,2.4,2.1,2.4,4.1c-0.1,8.6-0.1,17.1,0,25.7c0,1.8-0.8,3-2.2,3.8
		c-2.5,1.5-5.3,2.1-8.2,2.3c-2.6,0.2-5.2,0-7.8,0C24,30.8,23.8,30.8,23.4,30.8z M28.3-5.4c-3.4,0-6.4,0.3-9.4,1.4
		c-1,0.4-1.8,0.9-2.7,1.5c-0.7,0.5-0.7,1.2,0,1.6c0.9,0.6,1.9,1.3,3,1.6c4.5,1.5,9.1,1.7,13.7,0.9c1.9-0.3,3.8-0.9,5.6-1.6
		c0.7-0.3,1.7-1.1,1.8-1.7c0.1-1-1-1.4-1.8-1.8C35.2-5,31.6-5.3,28.3-5.4z M9,18.5c2.4-0.3,4.9-0.5,7.3-1.1c1.5-0.4,3-1.2,4.4-2
		c0.8-0.5,0.8-1.1,0-1.7s-1.8-1.1-2.7-1.5c-5.5-1.7-10.9-1.7-16.3-0.5C0.4,12-1,12.6-2.2,13.2c-1.6,0.9-1.5,1.8,0,2.7
		c0.5,0.3,1,0.6,1.6,0.8C2.4,17.9,5.6,18.2,9,18.5z M-3.3,24.8c-0.4,3.6,0.2,4.6,3.3,5.6c4.7,1.5,9.6,1.7,14.4,0.8
		c2-0.4,3.8-1.2,5.7-1.9c0.5-0.2,1-0.8,1.1-1.4c0.2-1,0.1-2.1,0.1-3.2C13,28,4.9,28-3.3,24.8z M-3.3,31.6c-0.2,3.7-0.5,3.9,2.9,5.4
		c0.3,0.1,0.6,0.2,0.9,0.3c5.1,1.4,10.2,1.5,15.4,0.4c1.3-0.3,2.6-0.8,3.8-1.4c0.6-0.3,1.3-1,1.4-1.6c0.2-1,0.1-2.2,0.1-3.2
		C13,34.7,4.9,34.7-3.3,31.6z M15.9,1.9c-0.2,3.8-0.7,4,3.3,5.6c0.1,0,0.1,0,0.2,0c4.5,1.4,9.2,1.5,13.8,0.8c1.9-0.3,3.8-1,5.7-1.7
		c0.6-0.2,1.3-0.9,1.4-1.4c0.2-1.1,0.1-2.3,0.1-3.3C32.1,5,24,5,15.9,1.9z M-3.4,18.1c0,1-0.1,2,0,3.1c0,0.4,0.4,0.9,0.7,1.2
		c0.4,0.4,1,0.7,1.5,0.9c6.1,2.3,12.3,2.3,18.6,0.6c1-0.3,2-0.8,2.9-1.4c0.4-0.2,0.8-0.7,0.8-1.1c0.1-1.1,0-2.2,0-3.2
		C13,21.3,4.9,21.3-3.4,18.1z M23.4,15.1c0.9,0.1,1.8,0.2,2.6,0.2c4,0.2,7.9,0,11.6-1.5c2.7-1,3.4-2.6,2.6-5.3
		c-8.2,3.1-16.3,3.2-24.4-0.1c-0.2,0.6,0.1,0.8,0.7,1.1c1.5,0.5,3.1,1,4.5,1.8C22.5,12,23.5,13.2,23.4,15.1z M40.4,15.1
		c-5.4,2.6-11.1,2.8-16.9,2.3c0,1.5,0,3,0,4.4c0.2,0,0.4,0.1,0.5,0.1c3.6,0.5,7.1,0.3,10.7-0.4c1.4-0.3,2.9-0.9,4.2-1.5
		c0.6-0.3,1.3-1,1.4-1.6C40.5,17.3,40.4,16.2,40.4,15.1z M40.3,21.8c-5.4,2.7-11.1,2.7-16.8,2.3c0,1.5,0,3,0,4.4
		c3.4,0.5,6.7,0.5,9.9-0.1c1.8-0.4,3.6-1,5.4-1.7c0.6-0.2,1.3-0.9,1.5-1.5C40.5,24.1,40.3,23,40.3,21.8z"/>
</g>
<g class="st0">
	<path class="st4" d="M28.1,8.3c-0.7,0.6-1.4,0.6-2.2,0.4c-1.2-0.5-2.5-0.7-3.8-1.1c-0.4-0.1-0.7-0.2-1.1-0.2c-1.7,0-3.3,0-5,0
		c-0.9,0-1.8,0.2-2.4,0.8c-0.6,0.7-1.4,0.7-2.2,0.7c-0.1,0-0.2,0-0.3,0C10.1,9,9.4,8.3,8.6,8c0.1-0.2,0.2-0.3,0.3-0.5
		C9.4,6.8,9.3,6.4,8.5,6c-1.3-0.8-2.6-1.7-4-2.4C3.9,3.2,3.6,3.3,3.2,3.9c-2.6,4.3-5.4,8.6-8.1,12.8c-0.4,0.6-0.3,1,0.4,1.3
		c1.3,0.7,2.7,1.5,4,2.2c0.6,0.4,0.9,0.3,1.3-0.4c0.3-0.5,0.6-0.9,0.8-1.3c0.7,0.7,1.5,1.5,2.2,2.2c-0.3,0.5-0.5,0.8-0.7,1.3
		c-0.9,1.5-0.2,3.1,1.4,3.6c0.1,0,0.2,0.1,0.2,0.1c0.2,1.8,0.9,2.5,2.9,2.6c0.7,1.4,1.2,1.7,2.8,1.6c0.1,0,0.3,0.1,0.4,0.2
		c1,1.5,3,1.6,4,0.1c0.2-0.3,0.4-0.3,0.6-0.2c1.4,0.6,2.7,1,4.1,1.6c0.3,0.1,0.6,0.2,1,0.2c1.1,0,1.9-0.5,2.5-1.4
		c0.3-0.5,0.6-0.6,1-0.6c1,0,1.9-0.5,2.5-1.3c0.3-0.4,0.5-0.6,0.7-1c0.1-0.1,0.2-0.3,0.3-0.3c0.8-0.3,1.3-0.9,1.8-1.6
		c0.2-0.2,0.5-0.4,0.6-0.4c1.2-0.2,2-0.9,2.4-2.1c0.3-0.9,0-1.7-0.5-2.4c1-0.7,2-1.4,3.1-2.1c0.3,0.5,0.6,0.8,0.7,1.2
		c0.5,0.6,0.7,0.7,1.4,0.4c1.3-0.6,2.5-1.4,3.8-2c0.8-0.5,0.9-0.8,0.4-1.6c-1.2-1.9-2.4-3.8-3.6-5.7c-1.5-2.3-2.9-4.5-4.3-6.8
		c-0.4-0.6-0.7-0.6-1.2-0.4c-1.4,0.8-2.9,1.8-4.3,2.6c-0.5,0.3-0.6,0.6-0.3,1.1C27.8,7.6,27.9,7.9,28.1,8.3z"/>
	<g class="st2">
		<path class="st5" d="M11.2,21.3c0-0.5-0.3-0.7-0.6-0.8c-0.4-0.2-0.7,0-0.9,0.4c-1,1.6-2,3.1-3.1,4.6c-0.3,0.5-0.2,0.8,0.3,1.1
			s0.8,0.2,1.1-0.3c1-1.5,2-3.1,3.1-4.5C11.1,21.6,11.2,21.4,11.2,21.3z"/>
		<path class="st5" d="M12.9,24.6c0.2-0.4,0.1-0.7-0.3-1s-0.7-0.2-1,0.2c-0.7,1.1-1.5,2.2-2.2,3.4c-0.4,0.6,0.1,1.1,0.8,1.2
			c0.1-0.1,0.4-0.3,0.6-0.5c0.6-0.8,1-1.7,1.6-2.4C12.5,25.1,12.7,24.9,12.9,24.6z"/>
		<path class="st5" d="M6.5,20.4c-0.1,0-0.2,0.1-0.4,0.2c-0.1,0-0.1,0.1-0.2,0.2c-0.4,0.7-0.9,1.4-1.4,2.1c-0.3,0.5-0.2,0.8,0.3,1.1
			c0.4,0.3,0.7,0.2,1-0.3c0.5-0.7,0.9-1.5,1.4-2.2C7.7,21,7.3,20.4,6.5,20.4z"/>
		<path class="st5" d="M4.3,5.3C1.8,9.2-0.6,13.1-3.1,17c1,0.6,1.9,1.1,3,1.6c2.5-3.8,5-7.6,7.4-11.4C6.3,6.5,5.4,5.9,4.3,5.3z"/>
		<path class="st5" d="M14.5,26c-0.3-0.2-0.6,0-0.8,0.3c-0.5,0.7-0.9,1.4-1.4,2.1c-0.3,0.5-0.3,0.9,0.2,1.1c0.4,0.3,0.8,0.2,1.1-0.3
			c0.5-0.6,0.8-1.4,1.3-2c0.1-0.2,0.2-0.3,0.3-0.6C15,26.4,14.8,26.1,14.5,26z"/>
		<path class="st3" d="M29.3,7.2c2.5,3.8,5,7.6,7.4,11.4c1-0.6,1.9-1.1,3-1.6c-2.5-3.9-4.9-7.8-7.4-11.7C31.3,5.9,30.4,6.5,29.3,7.2
			z"/>
		<path class="st3" d="M28.4,10c-0.8,0.6-1.8,0.6-2.8,0.3c-1.3-0.5-2.6-0.7-3.8-1.1c-0.3-0.1-0.6-0.1-0.9-0.1c-1.6,0-3.1,0-4.7,0
			c-0.8,0-1.6,0.4-2,1c-0.5,0.6-0.9,1.3-1.4,1.9s-0.9,1.4-1.5,2.1c0.7,0,1.3,0,1.9,0c0.6,0.1,1.1-0.2,1.4-0.7
			c0.1-0.3,0.3-0.5,0.5-0.6c0.4-0.3,0.7-0.7,1.1-0.8c1.2-0.3,2.3-0.4,3.4,0.4c3.4,2.3,6.8,4.5,10.2,6.8c0.9,0.6,0.9,0.6,1.9,0
			c0.8-0.6,1.7-1.2,2.5-1.8c-1.7-2.6-3.3-5.1-5-7.7C28.8,9.8,28.6,9.9,28.4,10z"/>
		<g>
			<path class="st6" d="M14.5,26c-0.3-0.2-0.6,0-0.8,0.3c-0.5,0.7-0.9,1.4-1.4,2.1c-0.3,0.5-0.3,0.9,0.2,1.1
				c0.4,0.3,0.8,0.2,1.1-0.3c0.5-0.6,0.8-1.4,1.3-2c0.1-0.2,0.2-0.3,0.3-0.6C15,26.4,14.8,26.1,14.5,26z"/>
			<path class="st6" d="M12.9,24.6c0.2-0.4,0.1-0.7-0.3-1s-0.7-0.2-1,0.2c-0.7,1.1-1.5,2.2-2.2,3.4c-0.4,0.6,0.1,1.1,0.8,1.2
				c0.1-0.1,0.4-0.3,0.6-0.5c0.6-0.8,1-1.7,1.6-2.4C12.5,25.1,12.7,24.9,12.9,24.6z"/>
			<path class="st6" d="M11.2,21.3c0-0.5-0.3-0.7-0.6-0.8c-0.4-0.2-0.7,0-0.9,0.4c-1,1.6-2,3.1-3.1,4.6c-0.3,0.5-0.2,0.8,0.3,1.1
				s0.8,0.2,1.1-0.3c1-1.5,2-3.1,3.1-4.5C11.1,21.6,11.2,21.4,11.2,21.3z"/>
			<path class="st6" d="M4.3,5.3C1.8,9.2-0.6,13.1-3.1,17c1,0.6,1.9,1.1,3,1.6c2.5-3.8,5-7.6,7.4-11.4C6.3,6.5,5.4,5.9,4.3,5.3z"/>
			<path class="st6" d="M6.5,20.4c-0.1,0-0.2,0.1-0.4,0.2c-0.1,0-0.1,0.1-0.2,0.2c-0.4,0.7-0.9,1.4-1.4,2.1
				c-0.3,0.5-0.2,0.8,0.3,1.1c0.4,0.3,0.7,0.2,1-0.3c0.5-0.7,0.9-1.5,1.4-2.2C7.7,21,7.3,20.4,6.5,20.4z"/>
			<path class="st6" d="M29.3,7.2c2.5,3.8,5,7.6,7.4,11.4c1-0.6,1.9-1.1,3-1.6c-2.5-3.9-4.9-7.8-7.4-11.7
				C31.3,5.9,30.4,6.5,29.3,7.2z"/>
			<path class="st6" d="M28.4,10c-0.8,0.6-1.8,0.6-2.8,0.3c-1.3-0.5-2.6-0.7-3.8-1.1c-0.3-0.1-0.6-0.1-0.9-0.1c-1.6,0-3.1,0-4.7,0
				c-0.8,0-1.6,0.4-2,1c-0.5,0.6-0.9,1.3-1.4,1.9s-0.9,1.4-1.5,2.1c0.7,0,1.3,0,1.9,0c0.6,0.1,1.1-0.2,1.4-0.7
				c0.1-0.3,0.3-0.5,0.5-0.6c0.4-0.3,0.7-0.7,1.1-0.8c1.2-0.3,2.3-0.4,3.4,0.4c3.4,2.3,6.8,4.5,10.2,6.8c0.9,0.6,0.9,0.6,1.9,0
				c0.8-0.6,1.7-1.2,2.5-1.8c-1.7-2.6-3.3-5.1-5-7.7C28.8,9.8,28.6,9.9,28.4,10z"/>
			<path class="st6" d="M30.2,21.3c-3.8-2.6-7.7-5.1-11.5-7.7c-1.2-0.8-2.2-0.6-3.1,0.6c-0.1,0.1-0.1,0.2-0.1,0.3
				c-0.5,0.7-1.2,1.1-2,1.1c-1.2,0-2.4,0-3.6,0c-0.4,0-0.6-0.1-0.8-0.5S9,14.5,9.3,14.2c0.8-1.1,1.6-2.2,2.3-3.3
				c0.1-0.1,0.2-0.3,0.4-0.6c-1.7,0.5-2.7-0.6-4-1.1c-1.7,2.6-3.3,5.2-5,7.7c0.8,0.8,1.6,1.6,2.3,2.3c1.3-0.8,2.2-0.7,3.4,0.3
				c0.8-0.8,1.9-1.1,2.9-0.6c1.2,0.6,1.6,1.6,1.3,2.9c1.1,0.4,1.7,1,1.9,2.1c0,0.1,0.2,0.3,0.4,0.4c1.3,0.5,2,1.8,1.6,3.1
				c-0.1,0.4-0.4,0.6-0.6,1c0.1,0,0.1,0.1,0.2,0.1c1.3,0.5,2.5,1,3.8,1.5c0.9,0.4,1.5,0.1,1.9-0.9c-0.2-0.1-0.3-0.2-0.5-0.3
				c-0.9-0.5-1.8-1-2.7-1.5c-0.5-0.3-0.6-0.7-0.3-1.1c0.2-0.4,0.6-0.5,1.1-0.3c0.1,0.1,0.3,0.2,0.4,0.2c1,0.6,2.1,1.2,3.1,1.9
				c0.9,0.6,1.9,0.2,2.3-0.6c-1.8-1.1-3.4-2.1-5.2-3.2c-0.4-0.3-0.5-0.6-0.2-1c0.2-0.4,0.6-0.5,1.1-0.3c0.1,0.1,0.2,0.1,0.4,0.2
				c1.3,0.8,2.6,1.7,3.9,2.5c1.1,0.6,2,0.4,2.6-0.8c-0.8-0.6-1.8-1-2.6-1.6c-1.1-0.6-2.3-1.4-3.4-2c-0.4-0.2-0.6-0.6-0.4-0.9
				c0.1-0.4,0.4-0.6,0.8-0.6c0.2,0,0.4,0.1,0.6,0.3c2,1.2,4.1,2.4,6,3.6c0.6,0.4,1.3,0.3,1.8-0.4C31.1,22.5,30.9,21.9,30.2,21.3z"/>
		</g>
		<path class="st3" d="M30.2,21.3c-3.8-2.6-7.7-5.1-11.5-7.7c-1.2-0.8-2.2-0.6-3.1,0.6c-0.1,0.1-0.1,0.2-0.1,0.3
			c-0.5,0.7-1.2,1.1-2,1.1c-1.2,0-2.4,0-3.6,0c-0.4,0-0.6-0.1-0.8-0.5S9,14.5,9.3,14.2c0.8-1.1,1.6-2.2,2.3-3.3
			c0.1-0.1,0.2-0.3,0.4-0.6c-1.7,0.5-2.7-0.6-4-1.1c-1.7,2.6-3.3,5.2-5,7.7c0.8,0.8,1.6,1.6,2.3,2.3c1.3-0.8,2.2-0.7,3.4,0.3
			c0.8-0.8,1.9-1.1,2.9-0.6c1.2,0.6,1.6,1.6,1.3,2.9c1.1,0.4,1.7,1,1.9,2.1c0,0.1,0.2,0.3,0.4,0.4c1.3,0.5,2,1.8,1.6,3.1
			c-0.1,0.4-0.4,0.6-0.6,1c0.1,0,0.1,0.1,0.2,0.1c1.3,0.5,2.5,1,3.8,1.5c0.9,0.4,1.5,0.1,1.9-0.9c-0.2-0.1-0.3-0.2-0.5-0.3
			c-0.9-0.5-1.8-1-2.7-1.5c-0.5-0.3-0.6-0.7-0.3-1.1c0.2-0.4,0.6-0.5,1.1-0.3c0.1,0.1,0.3,0.2,0.4,0.2c1,0.6,2.1,1.2,3.1,1.9
			c0.9,0.6,1.9,0.2,2.3-0.6c-1.8-1.1-3.4-2.1-5.2-3.2c-0.4-0.3-0.5-0.6-0.2-1c0.2-0.4,0.6-0.5,1.1-0.3c0.1,0.1,0.2,0.1,0.4,0.2
			c1.3,0.8,2.6,1.7,3.9,2.5c1.1,0.6,2,0.4,2.6-0.8c-0.8-0.6-1.8-1-2.6-1.6c-1.1-0.6-2.3-1.4-3.4-2c-0.4-0.2-0.6-0.6-0.4-0.9
			c0.1-0.4,0.4-0.6,0.8-0.6c0.2,0,0.4,0.1,0.6,0.3c2,1.2,4.1,2.4,6,3.6c0.6,0.4,1.3,0.3,1.8-0.4C31.1,22.5,30.9,21.9,30.2,21.3z"/>
	</g>
	<path class="st1" d="M-0.1,18.6c-1-0.6-1.9-1-3-1.6c2.5-3.9,4.9-7.8,7.4-11.7c1,0.6,1.9,1.2,3,1.9C4.9,11,2.4,14.8-0.1,18.6z"/>
	<path class="st1" d="M11.2,21.3c-0.1,0.1-0.1,0.3-0.2,0.5c-1,1.5-2,3.1-3.1,4.5c-0.3,0.5-0.6,0.6-1.1,0.3S6.2,26,6.5,25.5
		c1-1.6,2-3.1,3.1-4.6c0.2-0.4,0.6-0.5,0.9-0.4C11,20.6,11.2,20.8,11.2,21.3z"/>
	<path class="st1" d="M10.2,28.4c-0.7,0-1.1-0.6-0.8-1.2c0.7-1.1,1.5-2.3,2.2-3.4c0.3-0.4,0.6-0.4,1-0.2c0.4,0.3,0.5,0.6,0.3,1
		c-0.2,0.3-0.4,0.6-0.6,0.9c-0.6,0.8-1,1.7-1.6,2.4C10.5,28.1,10.3,28.3,10.2,28.4z"/>
	<path class="st1" d="M6.5,20.4c0.7,0,1.1,0.6,0.7,1.2c-0.5,0.7-0.9,1.5-1.4,2.2c-0.3,0.5-0.6,0.6-1,0.3S4.3,23.5,4.5,23
		c0.5-0.7,0.9-1.5,1.4-2.1c0-0.1,0.1-0.2,0.2-0.2C6.3,20.5,6.5,20.4,6.5,20.4z"/>
	<path class="st1" d="M15.2,26.6c-0.1,0.3-0.2,0.5-0.3,0.6c-0.5,0.6-0.8,1.4-1.3,2c-0.3,0.5-0.7,0.6-1.1,0.3s-0.5-0.6-0.2-1.1
		c0.5-0.7,0.9-1.4,1.4-2.1c0.2-0.4,0.6-0.5,0.8-0.3C14.8,26.1,15,26.4,15.2,26.6z"/>
</g>
<g class="st0">
	<path class="st1" d="M33.1,39L18.5,28.4L3.9,39l5.6-17.2L-5.1,11.2h18L18.5-6l5.6,17.2h18L27.6,21.8L33.1,39z M0.1,12.9l11.3,8.3
		L7.2,34.5l11.3-8.2l11.3,8.2l-4.3-13.4l11.3-8.3h-14L18.5-0.5l-4.3,13.4H0.1L0.1,12.9z"/>
</g>
<path class="st7" d="M33.3,31l-8.7-9c2.3-2.3,3.5-5.3,3.5-8.7C28.2,6.5,22.7,1,15.8,1S3.6,6.5,3.6,13.3S9.1,25.7,16,25.7
	c3,0,5.7-1.1,7.8-2.8l8.7,9c0.1,0.1,0.3,0.1,0.4,0.1s0.3-0.1,0.4-0.1C33.5,31.6,33.5,31.2,33.3,31z M15.8,24.4
	c-6.1,0-11.1-4.9-11.1-11.1S9.6,2.1,15.8,2.1S27,7.2,27,13.3S22,24.4,15.8,24.4z"/>
</svg>
