<?xml version="1.0" encoding="utf-8"?>
<!-- Generator: Adobe Illustrator 22.0.1, SVG Export Plug-In . SVG Version: 6.00 Build 0)  -->
<svg version="1.1" id="Layer_1" xmlns="http://www.w3.org/2000/svg" xmlns:xlink="http://www.w3.org/1999/xlink" x="0px" y="0px"
	 viewBox="0 0 48 47" style="enable-background:new 0 0 48 47;" xml:space="preserve">
<style type="text/css">
	.st0{fill:#FFFFFF;}
</style>
<g>
	<path class="st0" d="M4.6,24.8c0.1,1,0.2,1.7,0.4,2.5c2.2,11.1,12.6,19.2,24.7,17c12-2.2,19.1-13.4,17.1-24.5
		c-1.5-8.2-6.6-13.6-14.4-16.4c-2.1-0.8-4.4-1.1-6.7-1.1c-0.8,0-1.3,0.3-1.4,1c0,0.6,0.5,1.1,1.3,1.1c0.1,0,0.2,0,0.2,0
		c1.3,0,2.7,0,4,0.4c10.2,2,16.9,12.1,15,22.3S33.2,44.3,22.9,42.7c-7.9-1.2-14-7-15.8-14.8c-0.2-1.1-0.3-2-0.5-3.1h0.1
		c0.2,0.1,0.3,0.3,0.5,0.4c0.7,0.6,1.5,1.3,2.2,1.9c0.3,0.3,0.7,0.3,1.1,0.1c0.5-0.2,0.5-0.6,0.4-1c-0.1-0.3-0.2-0.5-0.4-0.7
		c-1.4-1.2-2.9-2.4-4.3-3.7c-0.4-0.3-1-0.3-1.4,0.2c-1.2,1.2-2.4,2.4-3.6,3.6c-0.1,0.1-0.3,0.3-0.3,0.5c-0.2,0.4,0,1,0.4,1.1
		c0.4,0.3,1,0.2,1.2-0.1C3.3,26.3,4,25.6,4.6,24.8z M24.1,16.8L24.1,16.8c0,2.5,0,5.1,0,7.6c0,0.4,0.1,0.7,0.4,1.1
		c2.5,2,5.1,3.9,7.8,6c0.2,0.2,0.6,0.2,0.8,0.2c0.3-0.1,0.6-0.4,0.7-0.7c0.2-0.4-0.1-0.8-0.4-1.1c-2.2-1.7-4.6-3.5-6.8-5.3
		c-0.3-0.2-0.3-0.4-0.3-0.7c0-3.4,0-6.9,0-10.3c0-1.3,0-2.8,0-4c0-0.4-0.2-0.7-0.5-1c-0.3-0.2-0.7-0.2-1.1,0c-0.3,0.2-0.4,0.5-0.4,1
		C24.1,11.7,24.1,14.2,24.1,16.8z M21.6,2.6c-0.7,0-1.1,0.4-1.1,1.1c0,0.5,0.5,1.1,1.1,1.1c0.6,0,1.1-0.4,1.1-1.1
		C22.6,3.2,22.2,2.6,21.6,2.6z M7.9,12.3c0,0.5,0.4,1.1,1.1,1.1c0.5,0,1.1-0.5,1.1-1.1c0-0.5-0.4-1.1-1-1.1S7.9,11.8,7.9,12.3z
		 M7.1,16.8c0.6,0,1.1-0.5,1.1-1.1c0-0.5-0.4-1.1-1.1-1.1c-0.5,0-1.1,0.5-1.1,1.1C6.2,16.3,6.6,16.8,7.1,16.8z M18.9,4.8
		c0-0.5-0.4-1-1-1.1c-0.6,0-1.1,0.4-1.2,1.1c0,0.5,0.4,1.1,1,1.1C18.3,5.9,18.9,5.4,18.9,4.8z M15.5,6.7c0-0.5-0.4-1.1-1.1-1
		c-0.5,0-1.1,0.5-1.1,1.1c0,0.5,0.4,1.1,1.1,1.1C14.9,7.7,15.5,7.2,15.5,6.7z M11.3,10.3c0.6,0,1.1-0.5,1.1-1.1
		c0-0.5-0.4-1.1-1.1-1.1c-0.5,0-1.1,0.5-1.1,1.1C10.4,9.9,10.8,10.3,11.3,10.3z"/>
	<path class="st0" d="M20.6,3.7c-0.1-0.5,0.4-1.1,1.1-1.1c0.5,0,1.1,0.4,1.1,1.1s-0.5,1.1-1.1,1.1"/>
	<path class="st0" d="M16.9,4.8c0-0.6,0.5-1.1,1.2-1.1c0.4,0.1,0.8,0.5,0.8,1.1s-0.5,1.1-1.1,1.1"/>
</g>
</svg>
