<?xml version="1.0" encoding="utf-8"?>
<!-- Generator: Adobe Illustrator 22.0.1, SVG Export Plug-In . SVG Version: 6.00 Build 0)  -->
<svg version="1.1" id="Layer_1" xmlns="http://www.w3.org/2000/svg" xmlns:xlink="http://www.w3.org/1999/xlink" x="0px" y="0px"
	 viewBox="0 0 47 48" style="enable-background:new 0 0 47 48;" xml:space="preserve">
<style type="text/css">
	.st0{display:none;}
	.st1{display:inline;fill:#FFFFFF;}
	.st2{fill:#FFFFFF;}
</style>
<g id="Time" class="st0">
	<path class="st1" d="M3.3,25.4c0.1,1,0.2,1.8,0.4,2.6C6,39.6,16.9,48,29.5,45.7c12.5-2.3,19.9-14,17.8-25.6
		c-1.6-8.6-6.9-14.2-15-17.1c-2.2-0.8-4.6-1.1-7-1.1c-0.8,0-1.4,0.3-1.5,1c0,0.6,0.5,1.1,1.4,1.1c0.1,0,0.2,0,0.2,0
		c1.4,0,2.8,0,4.2,0.4C40.2,6.5,47.2,17,45.3,27.7S33.1,45.7,22.4,44c-8.2-1.3-14.6-7.3-16.5-15.4c-0.2-1.1-0.3-2.1-0.5-3.2h0.1
		c0.2,0.1,0.3,0.3,0.5,0.4c0.7,0.6,1.6,1.4,2.3,2c0.3,0.3,0.7,0.3,1.2,0.1s0.5-0.6,0.4-1c-0.1-0.3-0.2-0.5-0.4-0.7
		c-1.5-1.3-3-2.5-4.5-3.9C4.6,22,4,22,3.5,22.5C2.2,23.8,1,25-0.3,26.3c-0.1,0.1-0.3,0.3-0.3,0.5c-0.2,0.4,0,1,0.4,1.2
		c0.4,0.3,1,0.2,1.3-0.1C1.9,26.9,2.6,26.2,3.3,25.4z M23.6,17L23.6,17c0,2.6,0,5.3,0,7.9c0,0.4,0.1,0.7,0.4,1.1
		c2.6,2.1,5.3,4.1,8.1,6.3c0.2,0.2,0.6,0.2,0.8,0.2c0.3-0.1,0.6-0.4,0.7-0.7c0.2-0.4-0.1-0.8-0.4-1.2c-2.3-1.8-4.8-3.7-7.1-5.5
		c-0.3-0.2-0.3-0.4-0.3-0.7c0-3.6,0-7.2,0-10.8c0-1.4,0-2.9,0-4.2c0-0.4-0.2-0.7-0.5-1c-0.3-0.2-0.7-0.2-1.1,0
		c-0.3,0.2-0.4,0.5-0.4,1C23.6,11.7,23.6,14.3,23.6,17z M21,2.2c-0.7,0-1.2,0.4-1.2,1.1c0,0.5,0.5,1.1,1.1,1.1s1.2-0.4,1.2-1.1
		C22,2.8,21.6,2.2,21,2.2z M6.7,12.3c0,0.5,0.4,1.1,1.1,1.1c0.5,0,1.1-0.5,1.2-1.2c0-0.5-0.4-1.1-1-1.1S6.7,11.8,6.7,12.3z M5.9,17
		C6.5,17,7,16.5,7,15.8c0-0.5-0.4-1.1-1.1-1.1c-0.5,0-1.1,0.5-1.1,1.2C4.9,16.5,5.3,17,5.9,17z M18.2,4.5c0-0.5-0.4-1-1-1.1
		c-0.6,0-1.2,0.4-1.3,1.1c0,0.5,0.4,1.1,1,1.1C17.5,5.6,18.2,5.1,18.2,4.5z M14.6,6.5c0-0.5-0.4-1.1-1.1-1c-0.5,0-1.2,0.5-1.2,1.2
		c0,0.5,0.4,1.1,1.1,1.1C14,7.5,14.6,7,14.6,6.5z M10.2,10.2c0.6,0,1.2-0.5,1.2-1.2c0-0.5-0.4-1.1-1.1-1.1c-0.5,0-1.2,0.5-1.2,1.2
		C9.3,9.8,9.7,10.2,10.2,10.2z"/>
	<path class="st1" d="M19.9,3.3c-0.1-0.5,0.4-1.1,1.2-1.1c0.5,0,1.1,0.4,1.1,1.1S21.7,4.4,21,4.4"/>
	<path class="st1" d="M16.1,4.5c0-0.6,0.5-1.1,1.3-1.1c0.4,0.1,0.8,0.5,0.8,1.1S17.7,5.6,17,5.6"/>
</g>
<g>
	<g>
		<path class="st2" d="M23.5,0.5c-9.8,0-17.8,8-17.8,17.8c0,9.5,16.4,28.1,17.1,28.9c0.3,0.3,0.9,0.4,1.3,0.1l0.1-0.1
			c0.7-0.8,17.1-19.4,17.1-28.9C41.3,8.5,33.3,0.5,23.5,0.5z M23.5,45.1c-3.1-3.7-16-19-16-26.9c0-8.9,7.1-16,16-16s16,7.1,16,16
			C39.5,26.1,26.6,41.5,23.5,45.1z"/>
	</g>
</g>
<g>
	<g>
		<path class="st2" d="M23.5,9.4c-4.7,0-8.6,3.9-8.6,8.6s3.9,8.6,8.6,8.6s8.6-3.9,8.6-8.6S28.2,9.4,23.5,9.4z M23.5,25
			c-3.9,0-7-3.1-7-7s3.1-7,7-7s7,3.1,7,7S27.4,25,23.5,25z"/>
	</g>
</g>
</svg>
