<?xml version="1.0" encoding="utf-8"?>
<!-- Generator: Adobe Illustrator 22.0.1, SVG Export Plug-In . SVG Version: 6.00 Build 0)  -->
<svg version="1.1" id="Layer_1" xmlns="http://www.w3.org/2000/svg" xmlns:xlink="http://www.w3.org/1999/xlink" x="0px" y="0px"
	 viewBox="0 0 37 50" style="enable-background:new 0 0 37 50;" xml:space="preserve">
<style type="text/css">
	.st0{fill:#FFFFFF;stroke:#FFFFFF;stroke-miterlimit:10;}
	.st1{fill:none;stroke:#FFFFFF;stroke-miterlimit:10;}
	.st2{fill:#FFFFFF;stroke:#FCFCFC;stroke-width:0.9933;stroke-miterlimit:10;}
	.st3{fill:#FFFFFF;}
</style>
<image style="display:none;overflow:visible;" width="35" height="48" xlink:href="Untitled-2.jpg"  transform="matrix(1 0 0 1 1.5 1)">
</image>
<g>
	<path class="st0" d="M9.9,18.3c0,0,1-3.3,1.3-4.3s7.5,1.5,11.5-5.3c0,0,3.8,4.5,4.5,7s3-4.5,1.8-8.5c0,0-5.8-11.8-19-3
		C9.9,4.3,4,8.7,9.9,18.3z"/>
	<path class="st1" d="M14.3,25.8v3.3l4.2,3.3l3.9-3.3v-2.4C22.4,26.6,18.1,29.3,14.3,25.8z"/>
	<polygon class="st1" points="11.1,31.7 14.3,29.1 18.5,32.3 14.8,37.6 	"/>
	<polygon class="st1" points="22.4,29 18.5,32.3 22.4,37.6 25.7,32.3 	"/>
	<path class="st1" d="M11.1,31.7h-6c0,0-4.1,1.1-4.1,5.5s0,6.1,0,6.1s6.1,6.1,14.8,5.3V36.3l-0.9,1.3L11.1,31.7z"/>
	<path class="st1" d="M25.9,32.1h6c0,0,4.1,1.1,4.1,5.5s0,6.1,0,6.1s-4.7,4.8-14.8,4.8V36.7l0.9,1.3L25.9,32.1z"/>
	<path class="st2" d="M15.7,48.4c0,0,2.6,1.2,5.6,0V36.6l-2.8-4.3l-2.8,3.9V48.4z"/>
	<path class="st1" d="M9.9,18.3c0,0,1.6,7.9,8.5,9.3s9-10.1,9.1-11.2S23,8.8,22.7,8.8c0,0-3.1,5.8-11.5,5.3L9.9,18.3z"/>
	<path class="st1" d="M0.9,37.2c0,0,3.4,2.1,3.5,3v2.1H0.9V37.2z"/>
	<rect x="25.1" y="40.2" class="st3" width="6.6" height="2.1"/>
</g>
</svg>
