<?xml version="1.0" encoding="utf-8"?>
<!-- Generator: Adobe Illustrator 22.0.1, SVG Export Plug-In . SVG Version: 6.00 Build 0)  -->
<svg version="1.1" id="Layer_1" xmlns="http://www.w3.org/2000/svg" xmlns:xlink="http://www.w3.org/1999/xlink" x="0px" y="0px"
	 viewBox="0 0 42 42" style="enable-background:new 0 0 42 42;" xml:space="preserve">
<style type="text/css">
	.st0{display:none;}
	.st1{display:inline;fill:#FFFFFF;}
	.st2{display:inline;}
	.st3{fill:#FFFFFF;}
</style>
<g id="Time" class="st0">
	<path class="st1" d="M0.8,22.4c0.1,1,0.2,1.8,0.4,2.6C3.5,36.6,14.4,45,27,42.7c12.5-2.3,19.9-14,17.8-25.6
		C43.2,8.5,37.9,2.9,29.8,0c-2.2-0.8-4.6-1.1-7-1.1c-0.8,0-1.4,0.3-1.5,1c0,0.6,0.5,1.1,1.4,1.1c0.1,0,0.2,0,0.2,0
		c1.4,0,2.8,0,4.2,0.4C37.7,3.5,44.7,14,42.8,24.7S30.6,42.7,19.9,41c-8.2-1.3-14.6-7.3-16.5-15.4c-0.2-1.1-0.3-2.1-0.5-3.2H3
		c0.2,0.1,0.3,0.3,0.5,0.4c0.7,0.6,1.6,1.4,2.3,2c0.3,0.3,0.7,0.3,1.2,0.1s0.5-0.6,0.4-1c-0.1-0.3-0.2-0.5-0.4-0.7
		c-1.5-1.3-3-2.5-4.5-3.9C2.1,19,1.5,19,1,19.5c-1.3,1.3-2.5,2.5-3.8,3.8c-0.1,0.1-0.3,0.3-0.3,0.5c-0.2,0.4,0,1,0.4,1.2
		c0.4,0.3,1,0.2,1.3-0.1C-0.6,23.9,0.1,23.2,0.8,22.4z M21.1,14L21.1,14c0,2.6,0,5.3,0,7.9c0,0.4,0.1,0.7,0.4,1.1
		c2.6,2.1,5.3,4.1,8.1,6.3c0.2,0.2,0.6,0.2,0.8,0.2c0.3-0.1,0.6-0.4,0.7-0.7c0.2-0.4-0.1-0.8-0.4-1.2c-2.3-1.8-4.8-3.7-7.1-5.5
		c-0.3-0.2-0.3-0.4-0.3-0.7c0-3.6,0-7.2,0-10.8c0-1.4,0-2.9,0-4.2c0-0.4-0.2-0.7-0.5-1c-0.3-0.2-0.7-0.2-1.1,0
		c-0.3,0.2-0.4,0.5-0.4,1C21.1,8.7,21.1,11.3,21.1,14z M18.5-0.8c-0.7,0-1.2,0.4-1.2,1.1c0,0.5,0.5,1.1,1.1,1.1s1.2-0.4,1.2-1.1
		C19.5-0.2,19.1-0.8,18.5-0.8z M4.2,9.3c0,0.5,0.4,1.1,1.1,1.1c0.5,0,1.1-0.5,1.2-1.2c0-0.5-0.4-1.1-1-1.1S4.2,8.8,4.2,9.3z M3.4,14
		c0.6,0,1.1-0.5,1.1-1.2c0-0.5-0.4-1.1-1.1-1.1c-0.5,0-1.1,0.5-1.1,1.2C2.4,13.5,2.8,14,3.4,14z M15.7,1.5c0-0.5-0.4-1-1-1.1
		c-0.6,0-1.2,0.4-1.3,1.1c0,0.5,0.4,1.1,1,1.1C15,2.6,15.7,2.1,15.7,1.5z M12.1,3.5c0-0.5-0.4-1.1-1.1-1c-0.5,0-1.2,0.5-1.2,1.2
		c0,0.5,0.4,1.1,1.1,1.1C11.5,4.5,12.1,4,12.1,3.5z M7.7,7.2c0.6,0,1.2-0.5,1.2-1.2c0-0.5-0.4-1.1-1.1-1.1c-0.5,0-1.2,0.5-1.2,1.2
		C6.8,6.8,7.2,7.2,7.7,7.2z"/>
	<path class="st1" d="M17.4,0.3c-0.1-0.5,0.4-1.1,1.2-1.1c0.5,0,1.1,0.4,1.1,1.1s-0.5,1.1-1.2,1.1"/>
	<path class="st1" d="M13.6,1.5c0-0.6,0.5-1.1,1.3-1.1c0.4,0.1,0.8,0.5,0.8,1.1s-0.5,1.1-1.2,1.1"/>
</g>
<g class="st0">
	<g class="st2">
		<path class="st3" d="M21-2.5c-9.8,0-17.8,8-17.8,17.8c0,9.5,16.4,28.1,17.1,28.9c0.3,0.3,0.9,0.4,1.3,0.1l0.1-0.1
			c0.7-0.8,17.1-19.4,17.1-28.9C38.8,5.5,30.8-2.5,21-2.5z M21,42.1c-3.1-3.7-16-19-16-26.9c0-8.9,7.1-16,16-16s16,7.1,16,16
			C37,23.1,24.1,38.5,21,42.1z"/>
	</g>
</g>
<g class="st0">
	<g class="st2">
		<path class="st3" d="M21,6.4c-4.7,0-8.6,3.9-8.6,8.6s3.9,8.6,8.6,8.6s8.6-3.9,8.6-8.6S25.7,6.4,21,6.4z M21,22c-3.9,0-7-3.1-7-7
			s3.1-7,7-7s7,3.1,7,7S24.9,22,21,22z"/>
	</g>
</g>
<g>
	<path class="st3" d="M25.1,32.9c0,0.8-0.1,1.7,0,2.5c0.2,1.7-0.7,2.8-2,3.5c-1.9,1.1-4,1.7-6.1,1.8c-3.6,0.3-7.2,0.5-10.7-0.5
		c-1.3-0.4-2.7-1-3.9-1.7c-0.9-0.5-1.3-1.4-1.3-2.5c0-5.5,0-11,0-16.5c0-1.1,0.4-1.8,1.3-2.4c1.6-1.3,3.5-1.8,5.4-2.1
		c2.9-0.5,5.8-0.6,8.8-0.3c0.1,0,0.3,0,0.5,0c0-1,0-1.9,0-2.9c0-2,0-4,0-5.9c0-1,0.6-1.8,1.3-2.3c1.3-1.1,2.9-1.7,4.6-1.9
		c4.8-0.8,9.5-0.9,14.2,0.5c0.7,0.2,1.3,0.5,1.9,0.8c1.3,0.8,2,1.8,2,3.4c-0.1,7.2-0.1,14.3,0,21.4c0,1.5-0.7,2.5-1.8,3.2
		c-2.1,1.3-4.4,1.8-6.8,1.9c-2.2,0.2-4.3,0-6.5,0C25.6,32.9,25.4,32.9,25.1,32.9z M29.2,2.7c-2.8,0-5.3,0.3-7.8,1.2
		c-0.8,0.3-1.5,0.8-2.3,1.3c-0.6,0.4-0.6,1,0,1.3c0.8,0.5,1.6,1.1,2.5,1.3c3.8,1.3,7.6,1.4,11.4,0.8c1.6-0.3,3.2-0.8,4.7-1.3
		c0.6-0.3,1.4-0.9,1.5-1.4c0.1-0.8-0.8-1.2-1.5-1.5C34.9,3.1,31.9,2.8,29.2,2.7z M13.1,22.7c2-0.3,4.1-0.4,6.1-0.9
		c1.3-0.3,2.5-1,3.7-1.7c0.7-0.4,0.7-0.9,0-1.4c-0.7-0.5-1.5-0.9-2.3-1.3C16,16,11.5,16,7,17c-1.1,0.3-2.3,0.8-3.3,1.3
		c-1.3,0.8-1.3,1.5,0,2.3c0.4,0.3,0.8,0.5,1.3,0.7C7.6,22.2,10.2,22.4,13.1,22.7z M2.8,27.9c-0.3,3,0.2,3.8,2.8,4.7
		c3.9,1.3,8,1.4,12,0.7c1.7-0.3,3.2-1,4.8-1.6c0.4-0.2,0.8-0.7,0.9-1.2c0.2-0.8,0.1-1.8,0.1-2.7C16.4,30.6,9.7,30.6,2.8,27.9z
		 M2.8,33.6c-0.2,3.1-0.4,3.3,2.4,4.5c0.3,0.1,0.5,0.2,0.8,0.3c4.3,1.2,8.5,1.3,12.8,0.3c1.1-0.3,2.2-0.7,3.2-1.2
		c0.5-0.3,1.1-0.8,1.2-1.3c0.2-0.8,0.1-1.8,0.1-2.7C16.4,36.2,9.7,36.2,2.8,33.6z M18.8,8.8c-0.2,3.2-0.6,3.3,2.8,4.7
		c0.1,0,0.1,0,0.2,0c3.8,1.2,7.7,1.3,11.5,0.7c1.6-0.3,3.2-0.8,4.8-1.4c0.5-0.2,1.1-0.8,1.2-1.2c0.2-0.9,0.1-1.9,0.1-2.8
		C32.4,11.4,25.6,11.4,18.8,8.8z M2.7,22.3c0,0.8-0.1,1.7,0,2.6c0,0.3,0.3,0.8,0.6,1c0.3,0.3,0.8,0.6,1.3,0.8
		c5.1,1.9,10.3,1.9,15.5,0.5c0.8-0.3,1.7-0.7,2.4-1.2c0.3-0.2,0.7-0.6,0.7-0.9c0.1-0.9,0-1.8,0-2.7C16.4,25,9.7,25,2.7,22.3z
		 M25.1,19.8c0.8,0.1,1.5,0.2,2.2,0.2c3.3,0.2,6.6,0,9.7-1.3c2.3-0.8,2.8-2.2,2.2-4.4c-6.8,2.6-13.6,2.7-20.4-0.1
		c-0.2,0.5,0.1,0.7,0.6,0.9c1.3,0.4,2.6,0.8,3.8,1.5C24.3,17.3,25.2,18.3,25.1,19.8z M39.3,19.8c-4.5,2.2-9.3,2.3-14.1,1.9
		c0,1.3,0,2.5,0,3.7c0.2,0,0.3,0.1,0.4,0.1c3,0.4,5.9,0.3,8.9-0.3c1.2-0.3,2.4-0.8,3.5-1.3c0.5-0.3,1.1-0.8,1.2-1.3
		C39.4,21.7,39.3,20.8,39.3,19.8z M39.2,25.4c-4.5,2.3-9.3,2.3-14,1.9c0,1.3,0,2.5,0,3.7c2.8,0.4,5.6,0.4,8.3-0.1
		c1.5-0.3,3-0.8,4.5-1.4c0.5-0.2,1.1-0.8,1.3-1.3C39.4,27.4,39.2,26.4,39.2,25.4z"/>
</g>
</svg>
