<?xml version="1.0" encoding="utf-8"?>
<!-- Generator: Adobe Illustrator 22.0.1, SVG Export Plug-In . SVG Version: 6.00 Build 0)  -->
<svg version="1.1" id="Layer_1" xmlns="http://www.w3.org/2000/svg" xmlns:xlink="http://www.w3.org/1999/xlink" x="0px" y="0px"
	 viewBox="0 0 243 37" style="enable-background:new 0 0 243 37;" xml:space="preserve">
<style type="text/css">
	.st0{fill:#FFFFFF;}
	.st1{fill:#CF2027;}
	.st2{fill:#BEBEBE;}
</style>
<g>
	<g>
		<path class="st0" d="M30.3,6.3C23.6-0.8,11.9-0.6,5.1,6.6C-1.8,13.9-1,25.6,6.7,32c8.6,7.1,19.4,3.8,23.4-1.1c-1-1-1.9-2-2.9-3.1
			c-6.6,6-14.5,4.1-18.6-0.1c-4.6-4.7-5-12.1-1-17.3c2.1-2.6,4.8-4.3,8.2-4.8C20.3,5,24,6.4,27.2,9.3C28.3,8.3,29.3,7.3,30.3,6.3z
			 M9.1,10.2c-4.8,4.6-4.5,12.7,0.5,17.4c5.1,4.8,13.2,4.2,17.7-1.1c4.1-4.8,3.7-12.9-0.7-16.2c-1,1-2,2-3,3
			c2.8,3.9,2.7,7.9-0.2,10.9c-2.7,2.7-7.1,3-10.2,0.7c-3.6-2.7-3.9-6.6-1.1-11.7C11.2,12.2,10.2,11.2,9.1,10.2z M15.8,20.6
			c-1-2-0.8-3.2,0.3-4.2c1-0.9,2.5-0.8,3.6,0.1c1.2,1,1.2,2.2,0.2,4.3c0.9,0.9,1.8,1.8,2.7,2.7c2-1.6,2.8-4.6,1.8-7.3
			c-1-2.8-3.7-4.6-6.7-4.5s-5.6,2.1-6.5,5c-0.8,2.6,0,5.4,1.8,6.7C14,22.4,14.9,21.5,15.8,20.6z"/>
		<path class="st1" d="M30.3,6.3c-1.1,1-2,2-3.1,3C24,6.4,20.3,5,15.9,5.7c-3.3,0.5-6.1,2.2-8.2,4.8c-4.1,5.1-3.6,12.5,1,17.3
			c4.1,4.2,12,6.1,18.6,0.1c1,1,1.9,2,2.9,3.1c-4,4.9-14.8,8.2-23.4,1.1C-0.9,25.7-1.6,14,5.2,6.7C11.9-0.6,23.6-0.8,30.3,6.3z"/>
		<path class="st2" d="M9.1,10.2c1,1,2,2,3,2.9c-2.8,5.1-2.4,9,1.1,11.7c3.1,2.3,7.4,2,10.2-0.7c3-3,3.1-7,0.2-10.9c1-1,2-2,3-3
			c4.4,3.3,4.7,11.4,0.7,16.2c-4.5,5.4-12.6,5.9-17.7,1.1C4.6,22.9,4.3,14.7,9.1,10.2z"/>
		<path d="M15.8,20.6c-1,0.9-1.8,1.8-2.7,2.7c-1.8-1.3-2.6-4.1-1.8-6.7c0.9-2.9,3.5-4.9,6.5-5s5.6,1.8,6.7,4.5
			c1,2.7,0.3,5.7-1.8,7.3c-0.9-0.9-1.8-1.8-2.7-2.7c1.1-2,1-3.2-0.2-4.3c-1-0.9-2.5-0.9-3.6-0.1C15,17.4,14.9,18.6,15.8,20.6z"/>
	</g>
	<path d="M241.7,18.9c0.7,0.8,1,1.8,1,2.9c0,1-0.3,1.8-0.8,2.6c-0.5,0.8-1.2,1.3-2.1,1.7c-0.9,0.4-1.9,0.6-3.2,0.6h-7.4V9.1h6.5
		c1.6,0,2.9,0.4,4,1.3c1,0.8,1.5,1.9,1.5,3.1c0,0.8-0.2,1.5-0.6,2.1s-1,1.1-1.9,1.5v0.2C240.1,17.6,241.1,18.1,241.7,18.9z
		 M237.1,12.4c-0.5-0.4-1.1-0.6-1.9-0.6h-2.5v4.6h2.2c0.9,0,1.6-0.2,2.1-0.6s0.8-1,0.8-1.8C237.9,13.3,237.6,12.8,237.1,12.4z
		 M238.4,19.7c-0.6-0.4-1.4-0.6-2.4-0.6h-3.2v5h3c1.2,0,2-0.2,2.6-0.6s0.9-1.1,0.9-1.9C239.3,20.8,239,20.2,238.4,19.7z M222.7,25.8
		c-1.5,0.8-3.2,1.2-5,1.2s-3.5-0.4-5-1.2c-1.5-0.8-2.7-1.9-3.5-3.2c-0.8-1.4-1.3-2.9-1.3-4.6c0-1.6,0.4-3.1,1.3-4.5
		c0.8-1.4,2-2.5,3.5-3.3s3.2-1.2,5.1-1.2c1.8,0,3.5,0.4,5,1.1c1.5,0.8,2.6,1.8,3.5,3.2s1.3,3,1.3,4.6c0,1.6-0.4,3.2-1.3,4.6
		C225.3,23.9,224.2,25,222.7,25.8z M223.1,14.8c-0.5-0.9-1.3-1.7-2.2-2.2c-1-0.5-2-0.8-3.2-0.8s-2.3,0.3-3.2,0.8
		c-1,0.5-1.7,1.2-2.2,2.2c-0.5,0.9-0.8,2-0.8,3.1c0,1.2,0.3,2.2,0.8,3.1s1.3,1.7,2.2,2.2c1,0.5,2,0.8,3.2,0.8c1.8,0,3.3-0.6,4.5-1.7
		s1.8-2.6,1.8-4.4C223.9,16.8,223.7,15.7,223.1,14.8z M200.4,32.2c-0.1,0-0.2,0-0.3,0s-0.2,0-0.3,0l-0.2-2.9c2,0,3-1.2,3-3.5V9.1
		h3.4V26c0,1.9-0.5,3.4-1.5,4.5C203.4,31.7,202.1,32.2,200.4,32.2z M188.9,26.7h-3.4V11.8h-6.3V9.1h16v2.7h-6.3V26.7z M178.4,24.4
		l3.4,8.8l-2.7,1.4l-3.4-8.8l-4.1,3.4V9.5l11.6,14.9H178.4z M164.5,19.3h-9.2v7.4h-3.4V9.1h3.4v7.4h9.2V9.1h3.4v17.6h-3.4V19.3z
		 M144.3,26.7h-3.4V11.8h-6.3V9.1h16v2.7h-6.3V26.7z M118.2,9.1h11.4v2.7h-8v4.6h7.7v2.7h-7.7v5h8.2v2.7h-11.6L118.2,9.1L118.2,9.1z
		 M112.4,24.9c-1-1.9-1.7-3.1-2.2-3.8c-0.5-0.6-0.9-1.1-1.3-1.4c-0.4-0.3-0.9-0.4-1.5-0.4h-1.2v7.4h-3.4V9.1h6.4
		c1.7,0,3,0.5,4.1,1.4c1,0.9,1.6,2.1,1.6,3.6c0,1-0.3,1.9-0.8,2.6s-1.3,1.3-2.3,1.8c0.6,0.3,1.1,0.7,1.5,1.2s1,1.4,1.6,2.6
		c1.1,2.1,1.9,3.6,2.4,4.4h-3.8C113.2,26.3,112.9,25.7,112.4,24.9z M110.5,12.3c-0.5-0.4-1.2-0.6-2.2-0.6h-2.1v4.9h2.2
		c0.9,0,1.6-0.2,2.1-0.7c0.5-0.4,0.8-1.1,0.8-1.8C111.3,13.3,111,12.7,110.5,12.3z M92.1,26.9c-1.6,0-3.1-0.3-4.3-0.9
		c-1.2-0.6-2.1-1.4-2.8-2.5c-0.6-1.1-1-2.4-1-3.9V9.1h3.4v10.2c0,1,0.2,1.9,0.5,2.5s0.8,1.1,1.6,1.5c0.7,0.4,1.6,0.6,2.5,0.6
		c1,0,1.9-0.2,2.7-0.6c0.7-0.4,1.3-0.9,1.6-1.6c0.3-0.7,0.5-1.6,0.5-2.7V9h3.4v10.4c0,2.4-0.7,4.2-2.1,5.4
		C96.8,26.3,94.7,26.9,92.1,26.9z M75.8,26.9c-1.9,0-3.5-0.4-5-1.1c-1.5-0.7-2.6-1.8-3.5-3.2C66.5,21.2,66,19.7,66,18
		c0-1.8,0.4-3.4,1.3-4.8s2.1-2.5,3.6-3.3s3.2-1.1,5.1-1.1c1,0,2,0.1,3,0.3s2,0.6,3.1,1.2v3.2c-1.1-0.6-2.1-1.1-3-1.3
		c-0.9-0.3-1.9-0.4-2.9-0.4c-1.3,0-2.4,0.3-3.4,0.8s-1.8,1.2-2.4,2.2c-0.6,0.9-0.8,2-0.8,3.1c0,1.2,0.3,2.2,0.8,3.2
		c0.6,0.9,1.3,1.6,2.4,2.2c1,0.5,2.2,0.8,3.4,0.8c1,0,1.9-0.1,2.8-0.4s2-0.8,3.3-1.5v3.2c-1.1,0.6-2.2,1-3.2,1.3
		C78.2,26.8,77.1,26.9,75.8,26.9z M53.2,9.1h11.4v2.7h-8v4.6h7.7v2.7h-7.7v5h8.2v2.7H53.2V9.1z M47.4,16.6c1.5,0.7,2.5,1.4,3.1,2.3
		c0.6,0.8,1,1.8,1,3c0,1.5-0.5,2.7-1.6,3.7c-1.1,0.9-2.5,1.4-4.3,1.4c-1.1,0-2.1-0.1-2.9-0.4c-0.8-0.2-1.7-0.7-2.7-1.3V22
		c1.9,1.6,3.7,2.3,5.4,2.3c0.8,0,1.5-0.2,2-0.5c0.5-0.4,0.8-0.8,0.8-1.4c0-0.8-0.4-1.5-1.3-2C46.2,20,45.2,19.5,44,19
		c-1.4-0.6-2.4-1.4-3.1-2.2c-0.7-0.8-1-1.8-1-2.9c0-1.5,0.6-2.6,1.7-3.5s2.6-1.3,4.4-1.3c1.7,0,3.4,0.4,5,1.3v3
		c-1.8-1.1-3.5-1.6-4.9-1.6c-0.9,0-1.5,0.2-2,0.5s-0.7,0.8-0.7,1.3c0,0.7,0.5,1.3,1.4,1.8C44.8,15.4,45.7,15.9,47.4,16.6z"/>
</g>
</svg>
