<?xml version="1.0" encoding="utf-8"?>
<!-- Generator: Adobe Illustrator 22.0.1, SVG Export Plug-In . SVG Version: 6.00 Build 0)  -->
<svg version="1.1" id="Layer_1" xmlns="http://www.w3.org/2000/svg" xmlns:xlink="http://www.w3.org/1999/xlink" x="0px" y="0px"
	 viewBox="0 0 43 33" style="enable-background:new 0 0 43 33;" xml:space="preserve">
<style type="text/css">
	.st0{display:none;}
	.st1{display:inline;fill:#FFFFFF;}
	.st2{display:inline;}
	.st3{fill:#FFFFFF;}
	.st4{display:inline;fill:#525879;}
	.st5{fill:#010101;}
	.st6{fill:none;}
	.st7{display:none;fill:#515778;}
	.st8{fill:#515778;}
</style>
<g id="Time" class="st0">
	<path class="st1" d="M1.3,17.9c0.1,1,0.2,1.8,0.4,2.6c2.3,11.6,13.2,20,25.8,17.7c12.5-2.3,19.9-14,17.8-25.6
		C43.7,4,38.4-1.6,30.3-4.5c-2.2-0.8-4.6-1.1-7-1.1c-0.8,0-1.4,0.3-1.5,1c0,0.6,0.5,1.1,1.4,1.1c0.1,0,0.2,0,0.2,0
		c1.4,0,2.8,0,4.2,0.4C38.2-1,45.2,9.5,43.3,20.2s-12.2,18-22.9,16.3c-8.2-1.3-14.6-7.3-16.5-15.4C3.7,20,3.6,19,3.4,17.9h0.1
		C3.7,18,3.8,18.2,4,18.3c0.7,0.6,1.6,1.4,2.3,2c0.3,0.3,0.7,0.3,1.2,0.1s0.5-0.6,0.4-1c-0.1-0.3-0.2-0.5-0.4-0.7
		c-1.5-1.3-3-2.5-4.5-3.9c-0.4-0.3-1-0.3-1.5,0.2c-1.3,1.3-2.5,2.5-3.8,3.8c-0.1,0.1-0.3,0.3-0.3,0.5c-0.2,0.4,0,1,0.4,1.2
		c0.4,0.3,1,0.2,1.3-0.1C-0.1,19.4,0.6,18.7,1.3,17.9z M21.6,9.5L21.6,9.5c0,2.6,0,5.3,0,7.9c0,0.4,0.1,0.7,0.4,1.1
		c2.6,2.1,5.3,4.1,8.1,6.3c0.2,0.2,0.6,0.2,0.8,0.2c0.3-0.1,0.6-0.4,0.7-0.7c0.2-0.4-0.1-0.8-0.4-1.2c-2.3-1.8-4.8-3.7-7.1-5.5
		c-0.3-0.2-0.3-0.4-0.3-0.7c0-3.6,0-7.2,0-10.8c0-1.4,0-2.9,0-4.2c0-0.4-0.2-0.7-0.5-1c-0.3-0.2-0.7-0.2-1.1,0
		c-0.3,0.2-0.4,0.5-0.4,1C21.6,4.2,21.6,6.8,21.6,9.5z M19-5.3c-0.7,0-1.2,0.4-1.2,1.1c0,0.5,0.5,1.1,1.1,1.1s1.2-0.4,1.2-1.1
		C20-4.7,19.6-5.3,19-5.3z M4.7,4.8c0,0.5,0.4,1.1,1.1,1.1c0.5,0,1.1-0.5,1.2-1.2c0-0.5-0.4-1.1-1-1.1S4.7,4.3,4.7,4.8z M3.9,9.5
		C4.5,9.5,5,9,5,8.3c0-0.5-0.4-1.1-1.1-1.1c-0.5,0-1.1,0.5-1.1,1.2C2.9,9,3.3,9.5,3.9,9.5z M16.2-3c0-0.5-0.4-1-1-1.1
		c-0.6,0-1.2,0.4-1.3,1.1c0,0.5,0.4,1.1,1,1.1C15.5-1.9,16.2-2.4,16.2-3z M12.6-1c0-0.5-0.4-1.1-1.1-1c-0.5,0-1.2,0.5-1.2,1.2
		c0,0.5,0.4,1.1,1.1,1.1C12,0,12.6-0.5,12.6-1z M8.2,2.7c0.6,0,1.2-0.5,1.2-1.2C9.4,1,9,0.4,8.3,0.4c-0.5,0-1.2,0.5-1.2,1.2
		C7.3,2.3,7.7,2.7,8.2,2.7z"/>
	<path class="st1" d="M17.9-4.2c-0.1-0.5,0.4-1.1,1.2-1.1c0.5,0,1.1,0.4,1.1,1.1S19.7-3.1,19-3.1"/>
	<path class="st1" d="M14.1-3c0-0.6,0.5-1.1,1.3-1.1C15.8-4,16.2-3.6,16.2-3S15.7-1.9,15-1.9"/>
</g>
<g class="st0">
	<g class="st2">
		<path class="st3" d="M21.5-7C11.7-7,3.7,1,3.7,10.8c0,9.5,16.4,28.1,17.1,28.9c0.3,0.3,0.9,0.4,1.3,0.1l0.1-0.1
			c0.7-0.8,17.1-19.4,17.1-28.9C39.3,1,31.3-7,21.5-7z M21.5,37.6c-3.1-3.7-16-19-16-26.9c0-8.9,7.1-16,16-16s16,7.1,16,16
			C37.5,18.6,24.6,34,21.5,37.6z"/>
	</g>
</g>
<g class="st0">
	<g class="st2">
		<path class="st3" d="M21.5,1.9c-4.7,0-8.6,3.9-8.6,8.6s3.9,8.6,8.6,8.6s8.6-3.9,8.6-8.6S26.2,1.9,21.5,1.9z M21.5,17.5
			c-3.9,0-7-3.1-7-7s3.1-7,7-7s7,3.1,7,7S25.4,17.5,21.5,17.5z"/>
	</g>
</g>
<g class="st0">
	<path class="st1" d="M26.4,30.8c0,1-0.1,2,0,3c0.2,2-0.8,3.3-2.4,4.2c-2.3,1.3-4.8,2-7.3,2.2c-4.3,0.3-8.6,0.6-12.8-0.6
		c-1.6-0.5-3.2-1.2-4.7-2c-1.1-0.6-1.6-1.7-1.6-3c0-6.6,0-13.2,0-19.8c0-1.3,0.5-2.2,1.5-2.9C1,10.4,3.3,9.8,5.6,9.4
		c3.5-0.6,7-0.7,10.5-0.3c0.1,0,0.3,0,0.6,0c0-1.2,0-2.3,0-3.5c0-2.4,0-4.8,0-7.1c0-1.2,0.7-2.1,1.6-2.8c1.6-1.3,3.5-2,5.5-2.3
		c5.7-1,11.4-1.1,17,0.6c0.8,0.2,1.6,0.6,2.3,1c1.6,0.9,2.4,2.1,2.4,4.1c-0.1,8.6-0.1,17.1,0,25.7c0,1.8-0.8,3-2.2,3.8
		c-2.5,1.5-5.3,2.1-8.2,2.3c-2.6,0.2-5.2,0-7.8,0C27,30.8,26.8,30.8,26.4,30.8z M31.3-5.4c-3.4,0-6.4,0.3-9.4,1.4
		c-1,0.4-1.8,0.9-2.7,1.5c-0.7,0.5-0.7,1.2,0,1.6c0.9,0.6,1.9,1.3,3,1.6c4.5,1.5,9.1,1.7,13.7,0.9c1.9-0.3,3.8-0.9,5.6-1.6
		c0.7-0.3,1.7-1.1,1.8-1.7c0.1-1-1-1.4-1.8-1.8C38.2-5,34.6-5.3,31.3-5.4z M12,18.5c2.4-0.3,4.9-0.5,7.3-1.1c1.5-0.4,3-1.2,4.4-2
		c0.8-0.5,0.8-1.1,0-1.7s-1.8-1.1-2.7-1.5c-5.5-1.7-10.9-1.7-16.3-0.5C3.4,12,2,12.6,0.8,13.2c-1.6,0.9-1.5,1.8,0,2.7
		c0.5,0.3,1,0.6,1.6,0.8C5.4,17.9,8.6,18.2,12,18.5z M-0.3,24.8c-0.4,3.6,0.2,4.6,3.3,5.6c4.7,1.5,9.6,1.7,14.4,0.8
		c2-0.4,3.8-1.2,5.7-1.9c0.5-0.2,1-0.8,1.1-1.4c0.2-1,0.1-2.1,0.1-3.2C16,28,7.9,28-0.3,24.8z M-0.3,31.6c-0.2,3.7-0.5,3.9,2.9,5.4
		c0.3,0.1,0.6,0.2,0.9,0.3c5.1,1.4,10.2,1.5,15.4,0.4c1.3-0.3,2.6-0.8,3.8-1.4c0.6-0.3,1.3-1,1.4-1.6c0.2-1,0.1-2.2,0.1-3.2
		C16,34.7,7.9,34.7-0.3,31.6z M18.9,1.9c-0.2,3.8-0.7,4,3.3,5.6c0.1,0,0.1,0,0.2,0c4.5,1.4,9.2,1.5,13.8,0.8c1.9-0.3,3.8-1,5.7-1.7
		c0.6-0.2,1.3-0.9,1.4-1.4c0.2-1.1,0.1-2.3,0.1-3.3C35.1,5,27,5,18.9,1.9z M-0.4,18.1c0,1-0.1,2,0,3.1c0,0.4,0.4,0.9,0.7,1.2
		c0.4,0.4,1,0.7,1.5,0.9c6.1,2.3,12.3,2.3,18.6,0.6c1-0.3,2-0.8,2.9-1.4c0.4-0.2,0.8-0.7,0.8-1.1c0.1-1.1,0-2.2,0-3.2
		C16,21.3,7.9,21.3-0.4,18.1z M26.4,15.1c0.9,0.1,1.8,0.2,2.6,0.2c4,0.2,7.9,0,11.6-1.5c2.7-1,3.4-2.6,2.6-5.3
		c-8.2,3.1-16.3,3.2-24.4-0.1c-0.2,0.6,0.1,0.8,0.7,1.1c1.5,0.5,3.1,1,4.5,1.8C25.5,12,26.5,13.2,26.4,15.1z M43.4,15.1
		c-5.4,2.6-11.1,2.8-16.9,2.3c0,1.5,0,3,0,4.4c0.2,0,0.4,0.1,0.5,0.1c3.6,0.5,7.1,0.3,10.7-0.4c1.4-0.3,2.9-0.9,4.2-1.5
		c0.6-0.3,1.3-1,1.4-1.6C43.5,17.3,43.4,16.2,43.4,15.1z M43.3,21.8c-5.4,2.7-11.1,2.7-16.8,2.3c0,1.5,0,3,0,4.4
		c3.4,0.5,6.7,0.5,9.9-0.1c1.8-0.4,3.6-1,5.4-1.7c0.6-0.2,1.3-0.9,1.5-1.5C43.5,24.1,43.3,23,43.3,21.8z"/>
</g>
<g class="st0">
	<path class="st4" d="M31.1,8.3c-0.7,0.6-1.4,0.6-2.2,0.4c-1.2-0.5-2.5-0.7-3.8-1.1c-0.4-0.1-0.7-0.2-1.1-0.2c-1.7,0-3.3,0-5,0
		c-0.9,0-1.8,0.2-2.4,0.8c-0.6,0.7-1.4,0.7-2.2,0.7c-0.1,0-0.2,0-0.3,0c-1,0.1-1.7-0.6-2.5-0.9c0.1-0.2,0.2-0.3,0.3-0.5
		c0.5-0.7,0.4-1.1-0.4-1.5c-1.3-0.8-2.6-1.7-4-2.4C6.9,3.2,6.6,3.3,6.2,3.9c-2.6,4.3-5.4,8.6-8.1,12.8c-0.4,0.6-0.3,1,0.4,1.3
		c1.3,0.7,2.7,1.5,4,2.2c0.6,0.4,0.9,0.3,1.3-0.4c0.3-0.5,0.6-0.9,0.8-1.3c0.7,0.7,1.5,1.5,2.2,2.2c-0.3,0.5-0.5,0.8-0.7,1.3
		c-0.9,1.5-0.2,3.1,1.4,3.6c0.1,0,0.2,0.1,0.2,0.1c0.2,1.8,0.9,2.5,2.9,2.6c0.7,1.4,1.2,1.7,2.8,1.6c0.1,0,0.3,0.1,0.4,0.2
		c1,1.5,3,1.6,4,0.1c0.2-0.3,0.4-0.3,0.6-0.2c1.4,0.6,2.7,1,4.1,1.6c0.3,0.1,0.6,0.2,1,0.2c1.1,0,1.9-0.5,2.5-1.4
		c0.3-0.5,0.6-0.6,1-0.6c1,0,1.9-0.5,2.5-1.3c0.3-0.4,0.5-0.6,0.7-1c0.1-0.1,0.2-0.3,0.3-0.3c0.8-0.3,1.3-0.9,1.8-1.6
		c0.2-0.2,0.5-0.4,0.6-0.4c1.2-0.2,2-0.9,2.4-2.1c0.3-0.9,0-1.7-0.5-2.4c1-0.7,2-1.4,3.1-2.1c0.3,0.5,0.6,0.8,0.7,1.2
		c0.5,0.6,0.7,0.7,1.4,0.4c1.3-0.6,2.5-1.4,3.8-2c0.8-0.5,0.9-0.8,0.4-1.6c-1.2-1.9-2.4-3.8-3.6-5.7c-1.5-2.3-2.9-4.5-4.3-6.8
		c-0.4-0.6-0.7-0.6-1.2-0.4c-1.4,0.8-2.9,1.8-4.3,2.6c-0.5,0.3-0.6,0.6-0.3,1.1C30.8,7.6,30.9,7.9,31.1,8.3z"/>
	<g class="st2">
		<path class="st5" d="M14.2,21.3c0-0.5-0.3-0.7-0.6-0.8c-0.4-0.2-0.7,0-0.9,0.4c-1,1.6-2,3.1-3.1,4.6c-0.3,0.5-0.2,0.8,0.3,1.1
			s0.8,0.2,1.1-0.3c1-1.5,2-3.1,3.1-4.5C14.1,21.6,14.2,21.4,14.2,21.3z"/>
		<path class="st5" d="M15.9,24.6c0.2-0.4,0.1-0.7-0.3-1s-0.7-0.2-1,0.2c-0.7,1.1-1.5,2.2-2.2,3.4c-0.4,0.6,0.1,1.1,0.8,1.2
			c0.1-0.1,0.4-0.3,0.6-0.5c0.6-0.8,1-1.7,1.6-2.4C15.5,25.1,15.7,24.9,15.9,24.6z"/>
		<path class="st5" d="M9.5,20.4c-0.1,0-0.2,0.1-0.4,0.2c-0.1,0-0.1,0.1-0.2,0.2c-0.4,0.7-0.9,1.4-1.4,2.1c-0.3,0.5-0.2,0.8,0.3,1.1
			c0.4,0.3,0.7,0.2,1-0.3c0.5-0.7,0.9-1.5,1.4-2.2C10.7,21,10.3,20.4,9.5,20.4z"/>
		<path class="st5" d="M7.3,5.3C4.8,9.2,2.4,13.1-0.1,17c1,0.6,1.9,1.1,3,1.6c2.5-3.8,5-7.6,7.4-11.4C9.3,6.5,8.4,5.9,7.3,5.3z"/>
		<path class="st5" d="M17.5,26c-0.3-0.2-0.6,0-0.8,0.3c-0.5,0.7-0.9,1.4-1.4,2.1c-0.3,0.5-0.3,0.9,0.2,1.1c0.4,0.3,0.8,0.2,1.1-0.3
			c0.5-0.6,0.8-1.4,1.3-2c0.1-0.2,0.2-0.3,0.3-0.6C18,26.4,17.8,26.1,17.5,26z"/>
		<path class="st3" d="M32.3,7.2c2.5,3.8,5,7.6,7.4,11.4c1-0.6,1.9-1.1,3-1.6c-2.5-3.9-4.9-7.8-7.4-11.7C34.3,5.9,33.4,6.5,32.3,7.2
			z"/>
		<path class="st3" d="M31.4,10c-0.8,0.6-1.8,0.6-2.8,0.3c-1.3-0.5-2.6-0.7-3.8-1.1c-0.3-0.1-0.6-0.1-0.9-0.1c-1.6,0-3.1,0-4.7,0
			c-0.8,0-1.6,0.4-2,1c-0.5,0.6-0.9,1.3-1.4,1.9s-0.9,1.4-1.5,2.1c0.7,0,1.3,0,1.9,0c0.6,0.1,1.1-0.2,1.4-0.7
			c0.1-0.3,0.3-0.5,0.5-0.6c0.4-0.3,0.7-0.7,1.1-0.8c1.2-0.3,2.3-0.4,3.4,0.4c3.4,2.3,6.8,4.5,10.2,6.8c0.9,0.6,0.9,0.6,1.9,0
			c0.8-0.6,1.7-1.2,2.5-1.8c-1.7-2.6-3.3-5.1-5-7.7C31.8,9.8,31.6,9.9,31.4,10z"/>
		<g>
			<path class="st6" d="M17.5,26c-0.3-0.2-0.6,0-0.8,0.3c-0.5,0.7-0.9,1.4-1.4,2.1c-0.3,0.5-0.3,0.9,0.2,1.1
				c0.4,0.3,0.8,0.2,1.1-0.3c0.5-0.6,0.8-1.4,1.3-2c0.1-0.2,0.2-0.3,0.3-0.6C18,26.4,17.8,26.1,17.5,26z"/>
			<path class="st6" d="M15.9,24.6c0.2-0.4,0.1-0.7-0.3-1s-0.7-0.2-1,0.2c-0.7,1.1-1.5,2.2-2.2,3.4c-0.4,0.6,0.1,1.1,0.8,1.2
				c0.1-0.1,0.4-0.3,0.6-0.5c0.6-0.8,1-1.7,1.6-2.4C15.5,25.1,15.7,24.9,15.9,24.6z"/>
			<path class="st6" d="M14.2,21.3c0-0.5-0.3-0.7-0.6-0.8c-0.4-0.2-0.7,0-0.9,0.4c-1,1.6-2,3.1-3.1,4.6c-0.3,0.5-0.2,0.8,0.3,1.1
				s0.8,0.2,1.1-0.3c1-1.5,2-3.1,3.1-4.5C14.1,21.6,14.2,21.4,14.2,21.3z"/>
			<path class="st6" d="M7.3,5.3C4.8,9.2,2.4,13.1-0.1,17c1,0.6,1.9,1.1,3,1.6c2.5-3.8,5-7.6,7.4-11.4C9.3,6.5,8.4,5.9,7.3,5.3z"/>
			<path class="st6" d="M9.5,20.4c-0.1,0-0.2,0.1-0.4,0.2c-0.1,0-0.1,0.1-0.2,0.2c-0.4,0.7-0.9,1.4-1.4,2.1
				c-0.3,0.5-0.2,0.8,0.3,1.1c0.4,0.3,0.7,0.2,1-0.3c0.5-0.7,0.9-1.5,1.4-2.2C10.7,21,10.3,20.4,9.5,20.4z"/>
			<path class="st6" d="M32.3,7.2c2.5,3.8,5,7.6,7.4,11.4c1-0.6,1.9-1.1,3-1.6c-2.5-3.9-4.9-7.8-7.4-11.7
				C34.3,5.9,33.4,6.5,32.3,7.2z"/>
			<path class="st6" d="M31.4,10c-0.8,0.6-1.8,0.6-2.8,0.3c-1.3-0.5-2.6-0.7-3.8-1.1c-0.3-0.1-0.6-0.1-0.9-0.1c-1.6,0-3.1,0-4.7,0
				c-0.8,0-1.6,0.4-2,1c-0.5,0.6-0.9,1.3-1.4,1.9s-0.9,1.4-1.5,2.1c0.7,0,1.3,0,1.9,0c0.6,0.1,1.1-0.2,1.4-0.7
				c0.1-0.3,0.3-0.5,0.5-0.6c0.4-0.3,0.7-0.7,1.1-0.8c1.2-0.3,2.3-0.4,3.4,0.4c3.4,2.3,6.8,4.5,10.2,6.8c0.9,0.6,0.9,0.6,1.9,0
				c0.8-0.6,1.7-1.2,2.5-1.8c-1.7-2.6-3.3-5.1-5-7.7C31.8,9.8,31.6,9.9,31.4,10z"/>
			<path class="st6" d="M33.2,21.3c-3.8-2.6-7.7-5.1-11.5-7.7c-1.2-0.8-2.2-0.6-3.1,0.6c-0.1,0.1-0.1,0.2-0.1,0.3
				c-0.5,0.7-1.2,1.1-2,1.1c-1.2,0-2.4,0-3.6,0c-0.4,0-0.6-0.1-0.8-0.5s-0.1-0.6,0.2-0.9c0.8-1.1,1.6-2.2,2.3-3.3
				c0.1-0.1,0.2-0.3,0.4-0.6c-1.7,0.5-2.7-0.6-4-1.1c-1.7,2.6-3.3,5.2-5,7.7c0.8,0.8,1.6,1.6,2.3,2.3c1.3-0.8,2.2-0.7,3.4,0.3
				c0.8-0.8,1.9-1.1,2.9-0.6c1.2,0.6,1.6,1.6,1.3,2.9c1.1,0.4,1.7,1,1.9,2.1c0,0.1,0.2,0.3,0.4,0.4c1.3,0.5,2,1.8,1.6,3.1
				c-0.1,0.4-0.4,0.6-0.6,1c0.1,0,0.1,0.1,0.2,0.1c1.3,0.5,2.5,1,3.8,1.5c0.9,0.4,1.5,0.1,1.9-0.9c-0.2-0.1-0.3-0.2-0.5-0.3
				c-0.9-0.5-1.8-1-2.7-1.5c-0.5-0.3-0.6-0.7-0.3-1.1c0.2-0.4,0.6-0.5,1.1-0.3c0.1,0.1,0.3,0.2,0.4,0.2c1,0.6,2.1,1.2,3.1,1.9
				c0.9,0.6,1.9,0.2,2.3-0.6c-1.8-1.1-3.4-2.1-5.2-3.2c-0.4-0.3-0.5-0.6-0.2-1c0.2-0.4,0.6-0.5,1.1-0.3c0.1,0.1,0.2,0.1,0.4,0.2
				c1.3,0.8,2.6,1.7,3.9,2.5c1.1,0.6,2,0.4,2.6-0.8c-0.8-0.6-1.8-1-2.6-1.6c-1.1-0.6-2.3-1.4-3.4-2c-0.4-0.2-0.6-0.6-0.4-0.9
				c0.1-0.4,0.4-0.6,0.8-0.6c0.2,0,0.4,0.1,0.6,0.3c2,1.2,4.1,2.4,6,3.6c0.6,0.4,1.3,0.3,1.8-0.4C34.1,22.5,33.9,21.9,33.2,21.3z"/>
		</g>
		<path class="st3" d="M33.2,21.3c-3.8-2.6-7.7-5.1-11.5-7.7c-1.2-0.8-2.2-0.6-3.1,0.6c-0.1,0.1-0.1,0.2-0.1,0.3
			c-0.5,0.7-1.2,1.1-2,1.1c-1.2,0-2.4,0-3.6,0c-0.4,0-0.6-0.1-0.8-0.5s-0.1-0.6,0.2-0.9c0.8-1.1,1.6-2.2,2.3-3.3
			c0.1-0.1,0.2-0.3,0.4-0.6c-1.7,0.5-2.7-0.6-4-1.1c-1.7,2.6-3.3,5.2-5,7.7c0.8,0.8,1.6,1.6,2.3,2.3c1.3-0.8,2.2-0.7,3.4,0.3
			c0.8-0.8,1.9-1.1,2.9-0.6c1.2,0.6,1.6,1.6,1.3,2.9c1.1,0.4,1.7,1,1.9,2.1c0,0.1,0.2,0.3,0.4,0.4c1.3,0.5,2,1.8,1.6,3.1
			c-0.1,0.4-0.4,0.6-0.6,1c0.1,0,0.1,0.1,0.2,0.1c1.3,0.5,2.5,1,3.8,1.5c0.9,0.4,1.5,0.1,1.9-0.9c-0.2-0.1-0.3-0.2-0.5-0.3
			c-0.9-0.5-1.8-1-2.7-1.5c-0.5-0.3-0.6-0.7-0.3-1.1c0.2-0.4,0.6-0.5,1.1-0.3c0.1,0.1,0.3,0.2,0.4,0.2c1,0.6,2.1,1.2,3.1,1.9
			c0.9,0.6,1.9,0.2,2.3-0.6c-1.8-1.1-3.4-2.1-5.2-3.2c-0.4-0.3-0.5-0.6-0.2-1c0.2-0.4,0.6-0.5,1.1-0.3c0.1,0.1,0.2,0.1,0.4,0.2
			c1.3,0.8,2.6,1.7,3.9,2.5c1.1,0.6,2,0.4,2.6-0.8c-0.8-0.6-1.8-1-2.6-1.6c-1.1-0.6-2.3-1.4-3.4-2c-0.4-0.2-0.6-0.6-0.4-0.9
			c0.1-0.4,0.4-0.6,0.8-0.6c0.2,0,0.4,0.1,0.6,0.3c2,1.2,4.1,2.4,6,3.6c0.6,0.4,1.3,0.3,1.8-0.4C34.1,22.5,33.9,21.9,33.2,21.3z"/>
	</g>
	<path class="st1" d="M2.9,18.6c-1-0.6-1.9-1-3-1.6c2.5-3.9,4.9-7.8,7.4-11.7c1,0.6,1.9,1.2,3,1.9C7.9,11,5.4,14.8,2.9,18.6z"/>
	<path class="st1" d="M14.2,21.3c-0.1,0.1-0.1,0.3-0.2,0.5c-1,1.5-2,3.1-3.1,4.5c-0.3,0.5-0.6,0.6-1.1,0.3S9.2,26,9.5,25.5
		c1-1.6,2-3.1,3.1-4.6c0.2-0.4,0.6-0.5,0.9-0.4C14,20.6,14.2,20.8,14.2,21.3z"/>
	<path class="st1" d="M13.2,28.4c-0.7,0-1.1-0.6-0.8-1.2c0.7-1.1,1.5-2.3,2.2-3.4c0.3-0.4,0.6-0.4,1-0.2c0.4,0.3,0.5,0.6,0.3,1
		c-0.2,0.3-0.4,0.6-0.6,0.9c-0.6,0.8-1,1.7-1.6,2.4C13.5,28.1,13.3,28.3,13.2,28.4z"/>
	<path class="st1" d="M9.5,20.4c0.7,0,1.1,0.6,0.7,1.2c-0.5,0.7-0.9,1.5-1.4,2.2c-0.3,0.5-0.6,0.6-1,0.3S7.3,23.5,7.5,23
		c0.5-0.7,0.9-1.5,1.4-2.1c0-0.1,0.1-0.2,0.2-0.2C9.3,20.5,9.5,20.4,9.5,20.4z"/>
	<path class="st1" d="M18.2,26.6c-0.1,0.3-0.2,0.5-0.3,0.6c-0.5,0.6-0.8,1.4-1.3,2c-0.3,0.5-0.7,0.6-1.1,0.3s-0.5-0.6-0.2-1.1
		c0.5-0.7,0.9-1.4,1.4-2.1c0.2-0.4,0.6-0.5,0.8-0.3C17.8,26.1,18,26.4,18.2,26.6z"/>
</g>
<g class="st0">
	<path class="st1" d="M36.1,39L21.5,28.4L6.9,39l5.6-17.2L-2.1,11.2h18L21.5-6l5.6,17.2h18L30.6,21.8L36.1,39z M3.1,12.9l11.3,8.3
		l-4.2,13.3l11.3-8.2l11.3,8.2l-4.3-13.4l11.3-8.3h-14L21.5-0.5l-4.3,13.4H3.1L3.1,12.9z"/>
</g>
<path class="st7" d="M42.4,37.1L30.1,24.3c3.2-3.2,5-7.5,5-12.3c0.1-9.6-7.7-17.5-17.4-17.5S0.4,2.3,0.4,12s7.8,17.5,17.5,17.5
	c4.2,0,8.1-1.5,11.1-4l12.3,12.8c0.2,0.2,0.4,0.2,0.6,0.2s0.4-0.1,0.5-0.2C42.7,37.9,42.7,37.4,42.4,37.1z M17.7,27.7
	c-8.7,0-15.8-7-15.8-15.8s7-15.8,15.8-15.8S33.5,3.3,33.5,12S26.4,27.7,17.7,27.7z"/>
<g>
	<path class="st8" d="M28.5,32.2c-4.8,0-9.5,0-14.4,0c0-0.3,0-0.5,0-0.8c0-1.3,0-2.8,0-4.2c0-2.8,1.5-4.8,4.1-5.8
		c0.1,0,0.2-0.1,0.3-0.2c-1.5-1.2-2.2-2.7-2-4.5c0.2-1.2,0.7-2.3,1.7-3.2c2-1.7,4.9-1.5,6.7,0.4c1.8,1.9,1.9,5.3-0.7,7.3
		c0.2,0.1,0.3,0.1,0.4,0.2c2.2,0.8,3.8,2.9,3.9,5.3C28.5,28.5,28.5,30.4,28.5,32.2z M15.7,30.8c3.7,0,7.7,0,11.5,0
		c0-1.2,0-2.6,0-3.8c-0.1-1.7-0.8-2.9-2.2-3.8c-0.3-0.2-0.4-0.1-0.6,0.1c-0.6,0.5-1.2,1.1-1.9,1.6c-0.2,0.2-0.3,0.4-0.3,0.6
		c0,1.3,0,2.7,0,4c0,0.2,0,0.3,0,0.4c-0.5,0-0.9,0-1.3,0c0-0.2,0-0.3,0-0.4c0-1.2,0-2.7,0-3.9c0-0.3-0.2-0.4-0.3-0.6
		c-0.6-0.5-1.2-1.1-2-1.7c-0.2-0.2-0.3-0.2-0.5-0.1c-1.2,0.7-2.1,1.8-2.2,3.2C15.5,27.7,15.7,29.3,15.7,30.8z M17.8,17.3
		c0,1.9,1.5,3.5,3.5,3.5s3.5-1.5,3.5-3.5c0-1.9-1.6-3.5-3.5-3.5C19.5,13.7,17.8,15.3,17.8,17.3z M22.9,22.5c-1.1,0-2,0-2.9,0
		c0.4,0.4,0.9,0.7,1.2,1.1c0.1,0.1,0.3,0.1,0.3,0C21.9,23.3,22.4,22.8,22.9,22.5z"/>
	<path class="st8" d="M31.4,28.5c-0.4-0.3-0.7-0.4-1.2-0.7c0.1-0.2,0.2-0.3,0.3-0.4c1.1-1.8,2.1-3.6,3.1-5.3c0.2-0.3,0.2-0.4,0-0.7
		c-1.9-3.3-3.8-6.6-5.8-9.9C27.6,11.2,27.4,11,27,11c-3.7,0-7.6,0-11.4,0c-0.3,0-0.4,0.1-0.6,0.4c-1.9,3.3-3.7,6.6-5.8,9.9
		C9,21.5,9,21.8,9.2,22c1.2,1.9,2.2,3.7,3.3,5.7c-0.4,0.3-0.7,0.4-1.2,0.7c-0.7-1.3-1.5-2.7-2.3-4c-0.4-0.8-1-1.6-1.4-2.6
		c-0.1-0.2-0.1-0.4,0-0.5c2.2-3.8,4.4-7.7,6.7-11.5c0.1-0.3,0.3-0.3,0.4-0.3c4.5,0,8.8,0,13.4,0c0.2,0,0.4,0.2,0.4,0.3
		c2.2,3.8,4.5,7.8,6.7,11.5c0.1,0.2,0.1,0.4,0,0.4C34,24.1,32.6,26.2,31.4,28.5z"/>
	<path class="st8" d="M31.6,13.1c-0.3-0.4-0.4-0.7-0.7-1.2c0.4-0.3,0.7-0.4,1.2-0.6c0.4-0.3,0.8-0.4,1.2-0.7
		c0.3-0.2,0.3-0.3,0.3-0.5c-0.2-1.5,1-2.8,2.5-2.9c1.4-0.1,2.8,1.2,2.8,2.7s-1.2,2.7-2.8,2.6c-0.6,0-1.2-0.3-1.5-0.6
		c-0.2-0.2-0.3-0.2-0.5-0.1C33.3,12.2,32.5,12.6,31.6,13.1z M37.5,9.7c0-0.7-0.6-1.2-1.2-1.2c-0.7,0-1.2,0.6-1.2,1.2
		c0,0.7,0.6,1.2,1.2,1.2C37,11,37.5,10.4,37.5,9.7z"/>
	<path class="st8" d="M11.7,12.2c-0.3,0.4-0.4,0.7-0.7,1.2c-0.8-0.4-1.6-0.9-2.4-1.3C8.3,12,8.2,12,8,12.1c-1,0.8-2.3,0.7-3.3-0.1
		S3.4,9.8,4.1,8.7C4.7,7.7,6,7.2,7.2,7.6C8.5,7.9,9.1,9.1,9,10.4c0,0.2,0.1,0.3,0.3,0.4c0.4,0.3,0.8,0.4,1.2,0.7
		C10.8,11.8,11.3,12,11.7,12.2z M6.3,8.9c-0.7,0-1.2,0.5-1.2,1.2c0,0.7,0.5,1.2,1.2,1.2s1.2-0.5,1.2-1.2C7.6,9.5,7.1,8.9,6.3,8.9z"
		/>
	<path class="st8" d="M22,6c0,1,0,2.1,0,3.1c-0.4,0-0.9,0-1.3,0c0-0.2,0-0.3,0-0.4c0-0.7,0-1.2,0-2c0-0.5-0.1-0.8-0.6-1.2
		c-1.1-0.5-1.5-1.8-1.2-2.9s1.4-1.9,2.6-1.8C22.7,1,23.6,1.8,23.8,3c0.3,1.2-0.3,2.3-1.4,2.9C22.4,5.8,22.2,5.8,22,6z M22.6,3.4
		c0-0.7-0.5-1.2-1.2-1.2c-0.7,0-1.2,0.5-1.2,1.2c0,0.7,0.5,1.2,1.2,1.2C22,4.6,22.6,4.1,22.6,3.4z"/>
	<path class="st8" d="M36.2,22.4c0-0.5,0-0.9,0-1.3c0.3,0,0.5,0,0.7,0c0.3,0,0.4-0.1,0.6-0.4c0.4-1.1,1.5-1.7,2.8-1.5
		c1.1,0.2,2,1,2.2,2.1c0.3,1.2-0.4,2.5-1.7,2.9c-1.2,0.4-2.6-0.1-3.2-1.2c-0.3-0.4-0.4-0.6-0.9-0.5C36.7,22.4,36.5,22.4,36.2,22.4z
		 M40,22.9c0.7,0,1.2-0.5,1.2-1.2s-0.5-1.2-1.2-1.2s-1.2,0.5-1.2,1.2C38.8,22.4,39.3,22.9,40,22.9z"/>
	<path class="st8" d="M6.5,20.8c0,0.4,0,0.9,0,1.3c-0.8-0.3-1.1,0.2-1.3,0.7c-0.6,1-1.9,1.3-2.9,1c-1.1-0.4-1.8-1.4-1.8-2.6
		c0.1-1.2,0.9-2.1,2-2.4c1.2-0.3,2.3,0.3,2.9,1.2c0.3,0.4,0.4,0.7,1,0.6C6.3,20.8,6.4,20.8,6.5,20.8z M1.8,21.4
		c0,0.7,0.6,1.2,1.2,1.2c0.7,0,1.2-0.6,1.2-1.2c0-0.7-0.6-1.2-1.2-1.2C2.3,20.2,1.8,20.8,1.8,21.4z"/>
</g>
</svg>
